<svg width="24" height="24" viewBox="0 0 24 24" fill="none" xmlns="http://www.w3.org/2000/svg">
<path d="M20.5355 12.8119H18.6794C18.8686 13.3299 18.972 13.8888 18.972 14.4715V21.4863C18.972 21.7292 18.9297 21.9624 18.8528 22.1792H21.9213C23.0675 22.1792 24 21.2467 24 20.1005V16.2764C24 14.3661 22.4459 12.8119 20.5355 12.8119Z" fill="black"/>
<path d="M5.02806 14.4715C5.02806 13.8889 5.13142 13.3299 5.3206 12.812H3.46454C1.55419 12.812 0 14.3661 0 16.2765V20.1006C0 21.2468 0.932486 22.1793 2.07872 22.1793H5.14726C5.07034 21.9624 5.02806 21.7293 5.02806 21.4864V14.4715Z" fill="black"/>
<path d="M14.1216 11.007H9.87836C7.96801 11.007 6.41382 12.5612 6.41382 14.4715V21.4864C6.41382 21.869 6.72404 22.1793 7.10673 22.1793H16.8932C17.2759 22.1793 17.5861 21.8691 17.5861 21.4864V14.4715C17.5861 12.5612 16.0319 11.007 14.1216 11.007Z" fill="black"/>
<path d="M12 1.82062C9.70259 1.82062 7.8335 3.68972 7.8335 5.98721C7.8335 7.54557 8.69361 8.90659 9.96383 9.62115C10.5663 9.96006 11.2609 10.1537 12 10.1537C12.7392 10.1537 13.4338 9.96006 14.0362 9.62115C15.3065 8.90659 16.1666 7.54552 16.1666 5.98721C16.1666 3.68976 14.2975 1.82062 12 1.82062Z" fill="black"/>
<path d="M4.68365 5.70419C2.96544 5.70419 1.56763 7.10201 1.56763 8.82022C1.56763 10.5384 2.96544 11.9362 4.68365 11.9362C5.11949 11.9362 5.53452 11.846 5.91154 11.6837C6.56338 11.403 7.10085 10.9063 7.43343 10.284C7.66687 9.84725 7.79966 9.34902 7.79966 8.82022C7.79966 7.10206 6.40185 5.70419 4.68365 5.70419Z" fill="black"/>
<path d="M19.3163 5.70419C17.5981 5.70419 16.2003 7.10201 16.2003 8.82022C16.2003 9.34906 16.3331 9.8473 16.5666 10.284C16.8991 10.9063 17.4366 11.4031 18.0884 11.6837C18.4655 11.846 18.8805 11.9362 19.3163 11.9362C21.0345 11.9362 22.4324 10.5384 22.4324 8.82022C22.4324 7.10201 21.0345 5.70419 19.3163 5.70419Z" fill="black"/>
</svg>
