<svg width="14" height="14" viewBox="0 0 14 14" fill="none" xmlns="http://www.w3.org/2000/svg">
<path d="M11.9789 7.4736H10.8962C11.0066 7.77575 11.0669 8.10183 11.0669 8.44168V12.5337C11.0669 12.6754 11.0422 12.8114 10.9974 12.9379H12.7873C13.4559 12.9379 13.9999 12.3939 13.9999 11.7253V9.49455C13.9999 8.38021 13.0933 7.4736 11.9789 7.4736Z" fill="#32CD8B"/>
<path d="M2.93303 8.44171C2.93303 8.10183 2.99333 7.77578 3.10369 7.47363H2.02098C0.906611 7.47363 0 8.38024 0 9.49461V11.7253C0 12.394 0.54395 12.9379 1.21259 12.9379H3.00257C2.9577 12.8114 2.93303 12.6754 2.93303 12.5337V8.44171Z" fill="#32CD8B"/>
<path d="M8.23765 6.42075H5.76244C4.64807 6.42075 3.74146 7.32736 3.74146 8.44173V12.5337C3.74146 12.7569 3.92242 12.9379 4.14565 12.9379H9.85443C10.0777 12.9379 10.2586 12.757 10.2586 12.5337V8.44173C10.2586 7.32736 9.35202 6.42075 8.23765 6.42075Z" fill="#32CD8B"/>
<path d="M7.00006 1.06204C5.65989 1.06204 4.56958 2.15235 4.56958 3.49255C4.56958 4.4016 5.07131 5.19553 5.81227 5.61235C6.16372 5.81005 6.5689 5.92303 7.00006 5.92303C7.43122 5.92303 7.8364 5.81005 8.18785 5.61235C8.92884 5.19553 9.43054 4.40157 9.43054 3.49255C9.43054 2.15238 8.34024 1.06204 7.00006 1.06204Z" fill="#32CD8B"/>
<path d="M2.73223 3.32745C1.72994 3.32745 0.914551 4.14285 0.914551 5.14513C0.914551 6.14742 1.72994 6.96282 2.73223 6.96282C2.98647 6.96282 3.22857 6.91015 3.4485 6.81549C3.82874 6.65178 4.14226 6.36199 4.33627 5.999C4.47244 5.74424 4.54991 5.4536 4.54991 5.14513C4.54991 4.14287 3.73451 3.32745 2.73223 3.32745Z" fill="#32CD8B"/>
<path d="M11.2679 3.32745C10.2656 3.32745 9.4502 4.14285 9.4502 5.14513C9.4502 5.45363 9.52766 5.74427 9.66383 5.999C9.85784 6.36202 10.1714 6.65181 10.5516 6.81549C10.7715 6.91015 11.0136 6.96282 11.2679 6.96282C12.2702 6.96282 13.0856 6.14742 13.0856 5.14513C13.0856 4.14285 12.2702 3.32745 11.2679 3.32745Z" fill="#32CD8B"/>
</svg>
