<svg width="24" height="24" viewBox="0 0 24 24" fill="none" xmlns="http://www.w3.org/2000/svg">
<g clip-path="url(#clip0_5_1703)">
<path d="M18.4847 11.0635L8.09645 0.383412C7.85619 0.136195 7.53545 4.1834e-07 7.19345 3.58544e-07C6.85146 2.98748e-07 6.53072 0.136194 6.29046 0.383412L5.52543 1.16975C5.02762 1.68213 5.02762 2.51491 5.52543 3.02651L14.2487 11.995L5.51575 20.9735C5.27548 21.2207 5.14282 21.5503 5.14282 21.9017C5.14282 22.2535 5.27548 22.583 5.51575 22.8305L6.28077 23.6166C6.52123 23.8638 6.84178 24 7.18377 24C7.52577 24 7.8465 23.8638 8.08677 23.6166L18.4847 12.9267C18.7256 12.6787 18.8579 12.3476 18.8571 11.9956C18.8579 11.6422 18.7256 11.3113 18.4847 11.0635Z" fill="#1D2639"/>
</g>
<defs>
<clipPath id="clip0_5_1703">
<rect width="24" height="24" fill="white"/>
</clipPath>
</defs>
</svg>
