<svg width="24" height="24" viewBox="0 0 24 24" fill="none" xmlns="http://www.w3.org/2000/svg">
<g clip-path="url(#clip0_5_1702)">
<path d="M5.51519 12.9365L15.9035 23.6166C16.1438 23.8638 16.4645 24 16.8065 24C17.1485 24 17.4692 23.8638 17.7095 23.6166L18.4745 22.8303C18.9723 22.3179 18.9723 21.4851 18.4745 20.9735L9.75121 12.005L18.4842 3.02651C18.7245 2.77929 18.8571 2.44974 18.8571 2.09832C18.8571 1.74652 18.7245 1.41696 18.4842 1.16955L17.7192 0.383412C17.4787 0.136194 17.1582 1.48528e-07 16.8162 1.78426e-07C16.4742 2.08324e-07 16.1534 0.136194 15.9132 0.383412L5.51519 11.0733C5.27436 11.3213 5.14208 11.6524 5.14284 12.0044C5.14208 12.3578 5.27436 12.6887 5.51519 12.9365Z" fill="#1D2639"/>
</g>
<defs>
<clipPath id="clip0_5_1702">
<rect width="24" height="24" fill="white"/>
</clipPath>
</defs>
</svg>
