<svg width="24" height="24" viewBox="0 0 24 24" fill="none" xmlns="http://www.w3.org/2000/svg">
<rect width="24" height="24" fill="white"/>
<path d="M8.53125 13.928L11.2833 15.5166V12.4725L8.53125 10.8839V13.928Z" fill="#050029"/>
<path d="M9.23438 9.66611L11.9864 11.2547L14.7384 9.66611L11.9864 8.07751L9.23438 9.66611Z" fill="#050029"/>
<path d="M12.6895 15.5166L15.4415 13.928V10.8839L12.6895 12.4725V15.5166Z" fill="#050029"/>
<path d="M5.71875 8.41455V15.5855L11.9864 19.2038L18.2541 15.5855V8.41455L11.9864 4.79626L5.71875 8.41455ZM16.4962 9.0572C16.7109 9.17955 16.8492 9.41908 16.8478 9.66611V14.3339C16.8483 14.5814 16.7105 14.8195 16.4962 14.9428L12.338 17.3433C12.1247 17.4685 11.8481 17.4685 11.6348 17.3433L7.47656 14.9428C7.28109 14.8299 7.14656 14.6208 7.12828 14.3949C7.12641 14.3747 7.12594 14.3541 7.125 14.3339V9.66611C7.12359 9.41908 7.26187 9.17955 7.47656 9.0572L11.6348 6.65673C11.8486 6.53251 12.1242 6.53251 12.338 6.65673L16.4962 9.0572Z" fill="#050029"/>
<path d="M22.1212 5.74266L12.338 0.0942187C12.1205 -0.0314063 11.8523 -0.0314063 11.6348 0.0942187L1.85156 5.74266C1.63406 5.86828 1.5 6.10031 1.5 6.35156V17.6484C1.5 17.8997 1.63406 18.1317 1.85156 18.2573L11.6348 23.9058C11.8523 24.0314 12.1205 24.0314 12.338 23.9058L22.1212 18.2573C22.3387 18.1317 22.4728 17.8997 22.4728 17.6484V6.35156C22.4728 6.10031 22.3387 5.86828 22.1212 5.74266ZM19.6603 15.9914C19.6589 16.1362 19.6148 16.2802 19.53 16.3983C19.4723 16.4808 19.395 16.5487 19.3087 16.6003L12.338 20.6245C12.1228 20.7502 11.85 20.7502 11.6348 20.6245L4.66406 16.6003C4.44937 16.477 4.31203 16.2389 4.3125 15.9914V8.00859C4.3125 7.75734 4.44656 7.52531 4.66406 7.39969L11.6348 3.37547C11.8486 3.25125 12.1242 3.25125 12.338 3.37547L19.3087 7.39969C19.5262 7.52531 19.6603 7.75734 19.6603 8.00859V15.9914Z" fill="#050029"/>
</svg>
