<svg width="18" height="18" viewBox="0 0 18 18" fill="none" xmlns="http://www.w3.org/2000/svg">
<path d="M9.00005 16.2C12.9765 16.2 16.2 12.9765 16.2 9.00002C16.2 5.02357 12.9765 1.80002 9.00005 1.80002C5.0236 1.80002 1.80005 5.02357 1.80005 9.00002C1.80005 12.9765 5.0236 16.2 9.00005 16.2Z" fill="#080F17"/>
<path d="M7.25213 8.28187L9 6.534L10.7487 8.28263L11.7657 7.26563L9 4.5L6.2352 7.2648L7.25216 8.2818L7.25213 8.28187ZM4.5 9L5.51704 7.98282L6.534 8.99978L5.51696 10.0168L4.5 9ZM7.25213 9.71824L9 11.466L10.7487 9.71741L11.7662 10.7339L11.7657 10.7344L9 13.5L6.2352 10.7352L6.23376 10.7338L7.25224 9.71813L7.25213 9.71824ZM11.466 9.00043L12.483 7.9834L13.5 9.00036L12.483 10.0174L11.466 9.00043Z" fill="#FFD54F"/>
<path d="M10.0315 8.99948H10.0319L9.00005 7.9675L8.23731 8.73002L8.14969 8.81767L7.96897 8.99843L7.96753 8.99983L7.96897 9.00131L9.00005 10.0325L10.032 9.00056L10.0325 8.99998L10.0316 8.99948" fill="#FFD54F"/>
</svg>
