<svg width="24" height="24" viewBox="0 0 24 24" fill="none" xmlns="http://www.w3.org/2000/svg">
<path d="M12 24C18.6274 24 24 18.6274 24 12C24 5.37258 18.6274 0 12 0C5.37258 0 0 5.37258 0 12C0 18.6274 5.37258 24 12 24Z" fill="#080F17"/>
<path d="M9.0848 10.8036L11.9979 7.89049L14.9124 10.8049L16.6074 9.10987L11.9979 4.50049L7.38992 9.10849L9.08486 10.8035L9.0848 10.8036ZM4.49792 12.0005L6.19298 10.3052L7.88792 12.0001L6.19286 13.6952L4.49792 12.0005ZM9.0848 13.1975L11.9979 16.1105L14.9124 13.1962L16.6083 14.8903L16.6074 14.8912L11.9979 19.5005L7.38992 14.8925L7.38752 14.8901L9.08498 13.1974L9.0848 13.1975ZM16.1079 12.0012L17.803 10.3061L19.4979 12.0011L17.8029 13.6961L16.1079 12.0012Z" fill="#FFD54F"/>
<path d="M13.7179 11.9997H13.7187L11.9988 10.2798L10.7276 11.5506L10.5816 11.6967L10.2804 11.998L10.278 12.0003L10.2804 12.0028L11.9988 13.7215L13.7188 12.0015L13.7196 12.0006L13.7181 11.9997" fill="#FFD54F"/>
</svg>
