<svg width="24" height="24" viewBox="0 0 24 24" fill="none" xmlns="http://www.w3.org/2000/svg">
<path d="M21.9476 9.64861C22.3643 7.12698 20.2451 5.77112 17.3495 4.86641L18.2891 1.4497L15.996 0.932378L15.0803 4.25886C14.4779 4.12171 13.8595 3.99419 13.2424 3.86666L14.1647 0.518523L11.8716 0L10.9321 3.41551C10.4332 3.31205 9.94216 3.21099 9.46709 3.10271L9.46975 3.09188L6.30615 2.37606L5.69573 4.59692C5.69573 4.59692 7.39828 4.95062 7.36245 4.97228C8.29136 5.18282 8.45856 5.73984 8.4307 6.18257L7.36112 10.0745C7.42482 10.0889 7.5071 10.1106 7.59999 10.1431L7.35714 10.0889L5.85762 15.5412C5.7435 15.7963 5.45554 16.1801 4.8053 16.0345C4.82919 16.0646 3.13858 15.6579 3.13858 15.6579L2 18.0376L4.98577 18.7125C5.54047 18.8388 6.08454 18.9712 6.61933 19.0951L5.67051 22.5503L7.96226 23.0676L8.90178 19.6509C9.52813 19.8037 10.1359 19.9457 10.7304 20.0804L9.79354 23.4827L12.0866 24L13.0354 20.552C16.9475 21.2233 19.8881 20.9526 21.1262 17.7453C22.1241 15.1635 21.0771 13.6729 19.0189 12.702C20.5184 12.3892 21.6464 11.4953 21.9476 9.64861ZM16.7059 16.3112C15.9986 18.8942 11.2015 17.4974 9.64624 17.1473L10.9069 12.5697C12.4622 12.9222 17.4477 13.6187 16.7059 16.3112ZM17.4159 9.61131C16.7696 11.9609 12.778 10.7663 11.4841 10.4739L12.6254 6.32332C13.9192 6.61567 18.09 7.16066 17.4159 9.61131Z" fill="#1D2639"/>
</svg>
