<svg width="24" height="24" viewBox="0 0 24 24" fill="none" xmlns="http://www.w3.org/2000/svg">
<g clip-path="url(#clip0_5_1835)">
<path d="M12.0009 24C18.6283 24 24.0009 18.6274 24.0009 12C24.0009 5.37258 18.6283 0 12.0009 0C5.37344 0 0.000854492 5.37258 0.000854492 12C0.000854492 18.6274 5.37344 24 12.0009 24Z" fill="#F7931A"/>
<path d="M17.3909 10.5151C17.6264 8.94306 16.4286 8.09781 14.7921 7.53381L15.3231 5.40381L14.0271 5.08131L13.5096 7.15506C13.1691 7.06956 12.8196 6.99006 12.4709 6.91056L12.9921 4.82331L11.6961 4.50006L11.1651 6.62931C10.8831 6.56481 10.6056 6.50181 10.3371 6.43431L10.3386 6.42756L8.55063 5.98131L8.20563 7.36581C8.20563 7.36581 9.16788 7.58631 9.14763 7.59981C9.67263 7.73106 9.76713 8.07831 9.75138 8.35431L9.14688 10.7806C9.18288 10.7896 9.22938 10.8031 9.28188 10.8233L9.14463 10.7896L8.29713 14.1886C8.23263 14.3476 8.06988 14.5868 7.70238 14.4961C7.71588 14.5148 6.76038 14.2613 6.76038 14.2613L6.11688 15.7448L7.80438 16.1656C8.11788 16.2443 8.42538 16.3268 8.72763 16.4041L8.19138 18.5581L9.48663 18.8806L10.0176 16.7506C10.3716 16.8458 10.7151 16.9343 11.0511 17.0183L10.5216 19.1393L11.8176 19.4618L12.3539 17.3123C14.5649 17.7308 16.2269 17.5621 16.9266 15.5626C17.4906 13.9531 16.8989 13.0238 15.7356 12.4186C16.5831 12.2236 17.2206 11.6663 17.3909 10.5151ZM14.4284 14.6686C14.0286 16.2788 11.3174 15.4081 10.4384 15.1898L11.1509 12.3361C12.0299 12.5558 14.8476 12.9901 14.4284 14.6686ZM14.8296 10.4918C14.4644 11.9566 12.2084 11.2118 11.4771 11.0296L12.1221 8.44206C12.8534 8.62431 15.2106 8.96406 14.8296 10.4918Z" fill="white"/>
</g>
<defs>
<clipPath id="clip0_5_1835">
<rect width="24" height="24" fill="white"/>
</clipPath>
</defs>
</svg>
