<svg width="18" height="18" viewBox="0 0 18 18" fill="none" xmlns="http://www.w3.org/2000/svg">
<path d="M9.00005 16.2C12.9765 16.2 16.2 12.9765 16.2 9.00002C16.2 5.02357 12.9765 1.80002 9.00005 1.80002C5.0236 1.80002 1.80005 5.02357 1.80005 9.00002C1.80005 12.9765 5.0236 16.2 9.00005 16.2Z" fill="#F3BA2F"/>
<g clip-path="url(#clip0_412_3116)">
<path d="M8.99992 4.78125L10.0452 5.85168L7.41316 8.48368L6.36792 7.43843L8.99992 4.78125Z" fill="white" stroke="white" stroke-width="0.5"/>
<path d="M10.5867 6.36798L11.6319 7.43841L7.41316 11.6572L6.36792 10.6119L10.5867 6.36798Z" fill="white" stroke="white" stroke-width="0.5"/>
<path d="M5.82649 7.95471L6.87173 9.02514L5.82649 10.0704L4.78125 9.02514L5.82649 7.95471Z" fill="white" stroke="white" stroke-width="0.5"/>
<path d="M12.1736 7.95471L13.2188 9.02514L9.00008 13.2439L7.95483 12.1986L12.1736 7.95471Z" fill="white" stroke="white" stroke-width="0.5"/>
</g>
<defs>
<clipPath id="clip0_412_3116">
<rect width="9" height="9" fill="white" transform="translate(4.5 4.5)"/>
</clipPath>
</defs>
</svg>
