<svg width="18" height="18" viewBox="0 0 18 18" fill="none" xmlns="http://www.w3.org/2000/svg">
<path d="M9.00005 16.2C12.9765 16.2 16.2 12.9765 16.2 9.00002C16.2 5.02357 12.9765 1.80002 9.00005 1.80002C5.0236 1.80002 1.80005 5.02357 1.80005 9.00002C1.80005 12.9765 5.0236 16.2 9.00005 16.2Z" fill="#25C6D5"/>
<g clip-path="url(#clip0_412_3112)">
<path fill-rule="evenodd" clip-rule="evenodd" d="M6.1183 5.45627C5.97634 4.72502 6.54416 4.05002 7.28233 4.05002C7.93533 4.05002 8.47476 4.58439 8.47476 5.23127V6.69377C8.64511 6.69377 8.81546 6.66564 8.9858 6.66564C9.15615 6.66564 9.29811 6.66564 9.46845 6.69377V5.23127C9.46845 4.58439 10.0079 4.05002 10.6609 4.05002C11.3991 4.05002 11.9669 4.72502 11.8533 5.45627L11.541 7.17189C12.6483 7.65002 13.5 8.49377 13.5 9.53439V10.1813C13.5 11.0531 12.9322 11.7844 12.1088 12.2625C11.2855 12.7688 10.2066 13.05 8.9858 13.05C7.76498 13.05 6.68612 12.7688 5.86278 12.2625C5.06782 11.7844 4.5 11.0531 4.5 10.1813V9.53439C4.5 8.49377 5.32334 7.65002 6.4306 7.17189L6.1183 5.45627ZM11.1151 7.39689L11.4842 5.37189C11.5694 4.86564 11.2003 4.38752 10.6609 4.38752C10.2066 4.38752 9.83754 4.75314 9.83754 5.20314V7.05939C9.72397 7.03127 9.58202 7.03127 9.46845 7.03127C9.29811 7.03127 9.15615 7.00314 8.9858 7.00314C8.81546 7.00314 8.64511 7.00314 8.47476 7.03127C8.3612 7.03127 8.21924 7.05939 8.10568 7.05939V5.23127C8.10568 4.78127 7.73659 4.41564 7.28233 4.41564C6.77129 4.41564 6.37382 4.89377 6.48738 5.40002L6.85647 7.42502C5.66404 7.87502 4.86909 8.66252 4.86909 9.56252V10.2094C4.86909 11.5875 6.71451 12.7125 8.9858 12.7125C11.2571 12.7125 13.1025 11.5875 13.1025 10.2094V9.56252C13.1309 8.63439 12.336 7.84689 11.1151 7.39689Z" fill="#633001"/>
<path d="M13.1309 10.1813C13.1309 11.5594 11.2855 12.6844 9.01418 12.6844C6.74289 12.6844 4.89746 11.5594 4.89746 10.1813V9.53441H13.1593V10.1813H13.1309Z" fill="#FEDC90"/>
<path fill-rule="evenodd" clip-rule="evenodd" d="M6.48737 5.39877C6.3738 4.89252 6.77128 4.4144 7.28232 4.4144C7.73658 4.4144 8.10566 4.78002 8.10566 5.23002V7.08627C8.38957 7.05815 8.67349 7.03002 8.98579 7.03002C9.2697 7.03002 9.55361 7.05815 9.83752 7.08627V5.23002C9.83752 4.78002 10.2066 4.4144 10.6609 4.4144C11.1719 4.4144 11.5694 4.89252 11.4842 5.39877L11.1151 7.42377C12.3076 7.87377 13.1309 8.66127 13.1309 9.56127C13.1309 10.9394 11.2855 12.0644 9.01418 12.0644C6.74289 12.0644 4.89746 10.9394 4.89746 9.56127C4.89746 8.66127 5.69241 7.87377 6.88484 7.42377L6.48737 5.39877Z" fill="#D1884F"/>
<path d="M7.85095 9.36564C7.85095 9.73127 7.65204 10.0406 7.3963 10.0406C7.14056 10.0406 6.94165 9.73127 6.94165 9.36564C6.94165 9.00002 7.14056 8.69064 7.3963 8.69064C7.65204 8.69064 7.85095 9.00002 7.85095 9.36564Z" fill="#633001"/>
<path d="M11.0023 9.36564C11.0023 9.73127 10.8034 10.0406 10.5477 10.0406C10.2919 10.0406 10.093 9.73127 10.093 9.36564C10.093 9.00002 10.2919 8.69064 10.5477 8.69064C10.8034 8.69064 11.0023 9.00002 11.0023 9.36564Z" fill="#633001"/>
</g>
<defs>
<clipPath id="clip0_412_3112">
<rect width="9" height="9" fill="white" transform="translate(4.5 4.05002)"/>
</clipPath>
</defs>
</svg>
