<svg width="24" height="24" viewBox="0 0 24 24" fill="none" xmlns="http://www.w3.org/2000/svg">
<path d="M12.0004 24C18.6278 24 24.0004 18.6274 24.0004 12C24.0004 5.37258 18.6278 0 12.0004 0C5.37301 0 0.000427246 5.37258 0.000427246 12C0.000427246 18.6274 5.37301 24 12.0004 24Z" fill="#25C6D5"/>
<g clip-path="url(#clip0_5_1802)">
<path fill-rule="evenodd" clip-rule="evenodd" d="M7.19716 6.09372C6.96057 4.87497 7.90694 3.74997 9.13723 3.74997C10.2256 3.74997 11.1246 4.64059 11.1246 5.71872V8.15622C11.4085 8.15622 11.6924 8.10934 11.9763 8.10934C12.2603 8.10934 12.4968 8.10934 12.7808 8.15622V5.71872C12.7808 4.64059 13.6798 3.74997 14.7681 3.74997C15.9984 3.74997 16.9448 4.87497 16.7555 6.09372L16.235 8.9531C18.0804 9.74997 19.5 11.1562 19.5 12.8906V13.9687C19.5 15.4218 18.5536 16.6406 17.1814 17.4375C15.8092 18.2812 14.011 18.75 11.9763 18.75C9.94164 18.75 8.14353 18.2812 6.77129 17.4375C5.44637 16.6406 4.5 15.4218 4.5 13.9687V12.8906C4.5 11.1562 5.87224 9.74997 7.71767 8.9531L7.19716 6.09372ZM15.5252 9.32809L16.1404 5.95309C16.2823 5.10934 15.6672 4.31247 14.7681 4.31247C14.011 4.31247 13.3959 4.92184 13.3959 5.67184V8.76559C13.2066 8.71872 12.97 8.71872 12.7808 8.71872C12.4968 8.71872 12.2603 8.67184 11.9763 8.67184C11.6924 8.67184 11.4085 8.67185 11.1246 8.71872C10.9353 8.71872 10.6987 8.76559 10.5095 8.76559V5.71872C10.5095 4.96872 9.89432 4.35934 9.13723 4.35934C8.28549 4.35934 7.62303 5.15622 7.8123 5.99997L8.42745 9.37497C6.44006 10.125 5.11514 11.4375 5.11514 12.9375V14.0156C5.11514 16.3125 8.19085 18.1875 11.9763 18.1875C15.7618 18.1875 18.8375 16.3125 18.8375 14.0156V12.9375C18.8849 11.3906 17.5599 10.0781 15.5252 9.32809Z" fill="#633001"/>
<path d="M18.8849 13.9688C18.8849 16.2656 15.8092 18.1406 12.0237 18.1406C8.23819 18.1406 5.16248 16.2656 5.16248 13.9688V12.8906H18.9322V13.9688H18.8849Z" fill="#FEDC90"/>
<path fill-rule="evenodd" clip-rule="evenodd" d="M7.81232 5.99789C7.62304 5.15414 8.28551 4.35727 9.13724 4.35727C9.89434 4.35727 10.5095 4.96664 10.5095 5.71664V8.81039C10.9827 8.76352 11.4559 8.71664 11.9764 8.71664C12.4495 8.71664 12.9227 8.76352 13.3959 8.81039V5.71664C13.3959 4.96664 14.0111 4.35727 14.7682 4.35727C15.6199 4.35727 16.2824 5.15414 16.1404 5.99789L15.5253 9.37289C17.5126 10.1229 18.8849 11.4354 18.8849 12.9354C18.8849 15.2323 15.8092 17.1073 12.0237 17.1073C8.23819 17.1073 5.16248 15.2323 5.16248 12.9354C5.16248 11.4354 6.4874 10.1229 8.47478 9.37289L7.81232 5.99789Z" fill="#D1884F"/>
<path d="M10.0849 12.6093C10.0849 13.2187 9.75338 13.7343 9.32715 13.7343C8.90091 13.7343 8.5694 13.2187 8.5694 12.6093C8.5694 12 8.90091 11.4843 9.32715 11.4843C9.75338 11.4843 10.0849 12 10.0849 12.6093Z" fill="#633001"/>
<path d="M15.3373 12.6093C15.3373 13.2187 15.0058 13.7343 14.5795 13.7343C14.1533 13.7343 13.8218 13.2187 13.8218 12.6093C13.8218 12 14.1533 11.4843 14.5795 11.4843C15.0058 11.4843 15.3373 12 15.3373 12.6093Z" fill="#633001"/>
</g>
<defs>
<clipPath id="clip0_5_1802">
<rect width="15" height="15" fill="white" transform="translate(4.5 3.74997)"/>
</clipPath>
</defs>
</svg>
