<svg width="24" height="24" viewBox="0 0 24 24" fill="none" xmlns="http://www.w3.org/2000/svg">
<g clip-path="url(#clip0_57_24212)">
<path fill-rule="evenodd" clip-rule="evenodd" d="M4.45204 14.7472C2.09217 14.7466 0.161621 12.8157 0.161621 10.4557C0.161621 8.09539 2.09278 6.16424 4.45312 6.16424L8.14701 6.16429C8.14701 8.99019 8.24282 11.9575 8.14701 14.7472H4.45204ZM8.20143 16.3719C8.27554 17.0836 8.41874 17.7886 8.64266 18.4616C8.98152 19.48 9.52776 20.4783 10.3313 21.2044C10.486 21.3441 10.5467 21.5401 10.5062 21.7436L10.1489 23.5403C10.1104 23.7338 9.98859 23.8817 9.8054 23.9555C9.61677 24.0315 9.43115 24.0097 9.2646 23.8938C7.9417 22.9731 6.97556 21.6201 6.34396 20.1511C5.83021 18.9563 5.52665 17.6708 5.40637 16.3719H8.20143ZM9.77165 5.97411V14.9038C14.3376 15.8976 18.1348 18.6245 21.7629 20.8857C22.2021 21.1595 22.754 20.9871 23.1799 20.7054C23.6058 20.4238 23.8383 20.0033 23.8383 19.5142V1.48452C23.8383 0.997158 23.6075 0.577861 23.1839 0.296002C22.7603 0.0141894 22.2414 -0.104357 21.7724 0.109955C18.4771 1.61656 14.2808 4.78921 9.77165 5.97411Z" fill="#1D2639"/>
</g>
<defs>
<clipPath id="clip0_57_24212">
<rect width="24" height="24" fill="white"/>
</clipPath>
</defs>
</svg>
