<svg width="24" height="24" viewBox="0 0 24 24" fill="none" xmlns="http://www.w3.org/2000/svg">
<path d="M23.3642 0.635764C22.5166 -0.211921 21.1422 -0.211921 20.2945 0.635764L12 8.93026L3.7055 0.635764C2.85782 -0.211921 1.48345 -0.211921 0.635764 0.635764C-0.211921 1.48345 -0.211921 2.85782 0.635764 3.7055L8.93026 12L0.635764 20.2945C-0.211921 21.1422 -0.211921 22.5166 0.635764 23.3642C1.48345 24.2119 2.85782 24.2119 3.7055 23.3642L12 15.0697L20.2945 23.3642C21.1422 24.2119 22.5166 24.2119 23.3642 23.3642C24.2119 22.5166 24.2119 21.1422 23.3642 20.2945L15.0697 12L23.3642 3.7055C24.2119 2.85782 24.2119 1.48345 23.3642 0.635764Z" fill="#1D2639"/>
</svg>
