<svg width="12" height="12" viewBox="0 0 12 12" fill="none" xmlns="http://www.w3.org/2000/svg">
<path d="M11.6821 0.317882C11.2583 -0.105961 10.5711 -0.105961 10.1472 0.317882L6 4.46513L1.85275 0.317882C1.42891 -0.105961 0.741725 -0.105961 0.317882 0.317882C-0.105961 0.741725 -0.105961 1.42891 0.317882 1.85275L4.46513 6L0.317882 10.1472C-0.105961 10.5711 -0.105961 11.2583 0.317882 11.6821C0.741725 12.106 1.42891 12.106 1.85275 11.6821L6 7.53487L10.1472 11.6821C10.5711 12.106 11.2583 12.106 11.6821 11.6821C12.106 11.2583 12.106 10.5711 11.6821 10.1472L7.53487 6L11.6821 1.85275C12.106 1.42891 12.106 0.741725 11.6821 0.317882Z" fill="#879AA5"/>
</svg>
