<svg width="24" height="24" viewBox="0 0 24 24" fill="none" xmlns="http://www.w3.org/2000/svg">
<path d="M21 18L20.5981 19.4833C20.5158 19.786 20.1993 20 19.8343 20H4.16574C3.80066 20 3.48416 19.786 3.4019 19.4833L3 18H21Z" fill="#1D2639"/>
<path d="M23.9784 8.39547L22.2427 16H1.75754L0.021875 8.39547C-0.0544088 8.06009 0.0724451 7.70998 0.345867 7.50459C0.620145 7.2992 0.98785 7.27754 1.2827 7.44826L6.58742 10.5135L11.2862 3.38731C11.4396 3.15506 11.6933 3.0112 11.9684 3.0008C12.2461 2.98867 12.5076 3.11519 12.6764 3.33531L18.1868 10.4987L22.667 7.47946C22.9593 7.2836 23.3407 7.28534 23.6296 7.48726C23.9193 7.68918 24.0564 8.04969 23.9784 8.39547Z" fill="#1D2639"/>
</svg>
