<svg width="24" height="24" viewBox="0 0 24 24" fill="none" xmlns="http://www.w3.org/2000/svg">
<path d="M4.5681 20.4166H16.5505L15.9783 18.5423L17.3472 19.7306L18.6018 20.8679L20.8875 22.8V4.50374C20.8304 3.36644 19.8623 2.39999 18.6623 2.39999L4.57231 2.40254C3.37314 2.40254 2.40002 3.37069 2.40002 4.50799V18.312C2.40002 19.5113 3.37146 20.4166 4.5681 20.4166ZM13.432 7.23054L13.4043 7.24074L13.4144 7.23054H13.432ZM7.01938 8.30919C8.55972 7.17529 9.98746 7.22969 9.98746 7.22969L10.1026 7.34444C8.21771 7.79919 7.36308 8.65089 7.36308 8.65089C7.36308 8.65089 7.59165 8.53784 7.99081 8.36529C10.5295 7.35549 13.3018 7.42859 15.8682 8.70699C15.8682 8.70699 15.0119 7.91054 13.2429 7.40054L13.3992 7.24499C13.6438 7.24584 14.9379 7.29174 16.3228 8.31599C16.3228 8.31599 17.8724 10.9935 17.8724 14.283C17.8211 14.2201 16.911 15.6991 14.569 15.7501C14.569 15.7501 14.1724 15.2962 13.89 14.9001C15.2598 14.5023 15.7724 13.7067 15.7724 13.7067C15.3228 13.9931 14.9127 14.1631 14.5799 14.3331C14.0682 14.5609 13.5556 14.6731 13.0438 14.7879C10.6202 15.1857 9.25973 14.5201 7.97401 13.9923L7.53451 13.7662C7.53451 13.7662 8.04628 14.5618 9.36141 14.9596C9.12417 15.2367 8.89494 15.5207 8.67401 15.8113C6.33282 15.7552 5.47903 14.2762 5.47903 14.2762C5.47903 10.9816 7.01938 8.30919 7.01938 8.30919Z" fill="#1D2639"/>
<path d="M13.5563 13.2375C14.0833 13.2375 14.5125 12.8085 14.5125 12.2794C14.5125 11.754 14.0856 11.325 13.5563 11.325V11.3271C13.0315 11.3271 12.6015 11.7547 12.6 12.2837C12.6 12.8085 13.0292 13.2375 13.5563 13.2375Z" fill="#1D2639"/>
<path d="M9.73127 13.2375C10.2583 13.2375 10.6875 12.8085 10.6875 12.2794C10.6875 11.754 10.2613 11.325 9.73424 11.325L9.73127 11.3271C9.20423 11.3271 8.77502 11.7547 8.77502 12.2837C8.77502 12.8085 9.20423 13.2375 9.73127 13.2375Z" fill="#1D2639"/>
</svg>
