<svg width="18" height="18" viewBox="0 0 18 18" fill="none" xmlns="http://www.w3.org/2000/svg">
<path d="M9.00005 16.2C12.9765 16.2 16.2 12.9765 16.2 9.00002C16.2 5.02357 12.9765 1.80002 9.00005 1.80002C5.0236 1.80002 1.80005 5.02357 1.80005 9.00002C1.80005 12.9765 5.0236 16.2 9.00005 16.2Z" fill="#627EEA"/>
<path d="M9.22388 3.60004V7.59154L12.5975 9.09904L9.22388 3.60004Z" fill="white" fill-opacity="0.602"/>
<path d="M9.2242 3.60004L5.8501 9.09904L9.2242 7.59154V3.60004Z" fill="white"/>
<path d="M9.22412 11.6856V14.3978L12.6 9.72723L9.22412 11.6856Z" fill="white" fill-opacity="0.602"/>
<path d="M9.2242 14.3978V11.6852L5.8501 9.72723L9.2242 14.3978Z" fill="white"/>
<path d="M9.22412 11.0579L12.5978 9.09904L9.22412 7.59244V11.0579Z" fill="white" fill-opacity="0.2"/>
<path d="M5.8501 9.09904L9.2242 11.0579V7.59244L5.8501 9.09904Z" fill="white" fill-opacity="0.602"/>
</svg>
