<svg width="24" height="24" viewBox="0 0 24 24" fill="none" xmlns="http://www.w3.org/2000/svg">
<path d="M3.55068 8.80001H18.0968L16.5112 10.3856C16.3283 10.5684 16.2256 10.8164 16.2256 11.075C16.2256 11.3336 16.3283 11.5816 16.5112 11.7645C16.694 11.9473 16.942 12.05 17.2006 12.05C17.4592 12.05 17.7072 11.9473 17.8901 11.7645L21.1401 8.51446C21.2306 8.42392 21.3024 8.31644 21.3514 8.19814C21.4004 8.07985 21.4257 7.95306 21.4257 7.82502C21.4257 7.69697 21.4004 7.57019 21.3514 7.45189C21.3024 7.33359 21.2306 7.22611 21.1401 7.13557L17.8901 3.88558C17.7072 3.70273 17.4592 3.60001 17.2006 3.60001C16.942 3.60001 16.694 3.70273 16.5112 3.88558C16.3283 4.06844 16.2256 4.31644 16.2256 4.57503C16.2256 4.83362 16.3283 5.08162 16.5112 5.26447L18.0968 6.85002H3.55068C3.29209 6.85002 3.0441 6.95274 2.86125 7.13559C2.67841 7.31844 2.57568 7.56643 2.57568 7.82502C2.57568 8.0836 2.67841 8.3316 2.86125 8.51444C3.0441 8.69729 3.29209 8.80001 3.55068 8.80001Z" fill="#00275C"/>
<path d="M20.4499 14H5.90377L7.48936 12.4145C7.67221 12.2316 7.77493 11.9836 7.77493 11.725C7.77493 11.4664 7.67221 11.2184 7.48936 11.0356C7.3065 10.8527 7.0585 10.75 6.79991 10.75C6.54132 10.75 6.29332 10.8527 6.11047 11.0356L2.86048 14.2856C2.76994 14.3761 2.69811 14.4836 2.64911 14.6019C2.60011 14.7202 2.57489 14.847 2.57489 14.975C2.57489 15.1031 2.60011 15.2298 2.64911 15.3481C2.69811 15.4664 2.76994 15.5739 2.86048 15.6645L6.11047 18.9144C6.29332 19.0973 6.54132 19.2 6.79991 19.2C7.0585 19.2 7.3065 19.0973 7.48936 18.9144C7.67221 18.7316 7.77493 18.4836 7.77493 18.225C7.77493 17.9664 7.67221 17.7184 7.48936 17.5356L5.90377 15.95H20.4499C20.7085 15.95 20.9564 15.8473 21.1393 15.6644C21.3221 15.4816 21.4249 15.2336 21.4249 14.975C21.4249 14.7164 21.3221 14.4684 21.1393 14.2856C20.9564 14.1027 20.7085 14 20.4499 14Z" fill="#00275C"/>
</svg>
