<svg width="14" height="14" viewBox="0 0 14 14" fill="none" xmlns="http://www.w3.org/2000/svg">
<path d="M12.5237 13.5622C12.5202 13.5528 12.5169 13.544 12.5143 13.5361C12.1828 12.5242 11.2443 11.8444 10.1789 11.8444C9.79424 11.8444 9.42683 11.9347 9.09845 12.096C9.06428 12.0636 9.02941 12.0319 8.99364 12.0009C8.50677 11.5801 7.89974 11.3266 7.26202 11.2729V10.3344C7.45117 10.2432 7.71283 10.2274 8.01261 10.2095C8.61244 10.1736 9.35894 10.129 9.99282 9.4363C10.8082 8.54516 10.9814 6.93403 10.8018 6.52611C10.7398 6.38538 10.641 6.36435 10.5875 6.36435C10.5354 6.36435 10.4851 6.3835 10.4381 6.42122C10.2737 6.55315 9.97921 6.56902 9.63823 6.58744C9.04026 6.61965 8.29606 6.65979 7.68384 7.32877C7.51559 7.51262 7.37614 7.72347 7.26206 7.94618V5.7703C7.41537 5.61021 7.64271 5.47271 7.89791 5.31878C8.49083 4.96105 9.22877 4.51579 9.50413 3.47227C9.82455 2.25733 9.28164 0.699538 8.90071 0.205149C8.79434 0.0671401 8.69367 0 8.5929 0C8.54909 0 8.44073 0.0148234 8.38089 0.152032C8.28017 0.382916 7.9834 0.559585 7.63979 0.764207C7.04687 1.11725 6.30892 1.5566 6.04313 2.56406C5.70814 3.83378 6.28342 5.31788 6.6508 5.79475C6.66043 5.80729 6.66999 5.81902 6.67946 5.83044V7.00769C6.57087 6.60363 6.36595 6.18851 5.92512 5.82799C5.25612 5.28101 4.24561 5.08691 3.58354 5.08691C2.94192 5.08691 2.86694 5.25502 2.84232 5.31024C2.82549 5.34803 2.79639 5.44708 2.88984 5.55115C3.03073 5.70798 3.06298 6.00113 3.10031 6.34059C3.16576 6.93581 3.24724 7.67657 3.94923 8.25059C4.60542 8.78723 5.56046 8.9784 6.23538 8.9784C6.41283 8.9784 6.56067 8.96614 6.67951 8.94214V11.2802C6.0682 11.3464 5.48835 11.5961 5.01986 12.001C4.98408 12.0319 4.94922 12.0636 4.91504 12.0961C4.58671 11.9348 4.21925 11.8444 3.83458 11.8444C3.32861 11.8444 2.84267 11.997 2.42933 12.2857C2.02555 12.5678 1.7186 12.9589 1.54175 13.4166C1.4758 13.5873 1.48026 13.7348 1.55456 13.8433C1.62584 13.9472 1.74905 14 1.92075 14H3.97673H6.27973H7.73374H10.0367H12.2422C12.3737 14 12.4676 13.9609 12.5213 13.884C12.6006 13.77 12.5506 13.6348 12.5237 13.5622ZM6.05153 8.01023C6.04375 8.00259 6.03574 7.99511 6.0281 7.98722L6.0165 7.97542L6.0136 7.97244L6.01287 7.97171C6.01202 7.97073 6.01756 7.97755 6.01488 7.97439L6.01348 7.97313L6.00786 7.96824C5.99301 7.95522 5.97798 7.94202 5.96275 7.92868C5.93077 7.90352 5.89952 7.87698 5.86511 7.8523C5.72967 7.75206 5.5705 7.6604 5.39991 7.57123C5.22999 7.4813 5.04976 7.3925 4.88279 7.28855C4.79934 7.23685 4.71957 7.18092 4.64694 7.12149C4.57438 7.06215 4.50989 6.99714 4.45748 6.93101C4.40558 6.86432 4.36424 6.79803 4.33825 6.73432C4.33103 6.719 4.32533 6.70344 4.32032 6.6883C4.31499 6.67331 4.31032 6.65885 4.306 6.64504C4.29916 6.61644 4.29301 6.59082 4.28898 6.56724C4.28587 6.54288 4.28358 6.52167 4.28219 6.50351C4.2807 6.48553 4.28216 6.4705 4.28219 6.4581C4.28322 6.43335 4.28379 6.42015 4.28379 6.42015C4.28379 6.42015 4.29113 6.43113 4.30488 6.45176C4.31181 6.46187 4.31927 6.47544 4.32956 6.48951C4.33965 6.50293 4.35118 6.51835 4.36417 6.53565C4.37799 6.55184 4.39327 6.56973 4.4099 6.58924C4.42905 6.60679 4.44524 6.62751 4.46768 6.64584C4.50879 6.68484 4.56049 6.72213 4.61791 6.75891C4.67567 6.79565 4.74089 6.83104 4.81366 6.86512C4.88601 6.89971 4.96539 6.93293 5.04925 6.96793C5.21686 7.0377 5.40394 7.11317 5.58994 7.21046C5.68273 7.25923 5.77501 7.31395 5.86253 7.37569C5.95019 7.43724 6.0327 7.50656 6.10583 7.58155C6.14269 7.61865 6.17647 7.65825 6.20793 7.6978C6.22296 7.71825 6.23785 7.73847 6.25254 7.75847L6.258 7.76592L6.25938 7.76775C6.25716 7.7651 6.26317 7.77244 6.26272 7.77201L6.26329 7.77288L6.26546 7.77638L6.27431 7.79038C6.28028 7.79962 6.28575 7.8092 6.2914 7.81849C6.33665 7.89291 6.37796 7.96446 6.41491 8.03142C6.43296 8.0652 6.45082 8.09719 6.46681 8.12839C6.4825 8.15984 6.49735 8.1899 6.5105 8.21865C6.53713 8.27591 6.55939 8.32651 6.57668 8.36888C6.61171 8.45336 6.62781 8.50444 6.62781 8.50444C6.62781 8.50444 6.58329 8.47534 6.51222 8.41948C6.44018 8.36419 6.34488 8.2806 6.23023 8.17899C6.17364 8.12777 6.11354 8.07129 6.05153 8.01023ZM7.01743 5.37201C7.03397 5.32269 7.05533 5.26353 7.08091 5.19651C7.10706 5.12971 7.13663 5.05433 7.16884 4.97212C7.20201 4.89031 7.23935 4.80252 7.28052 4.71065C7.28567 4.69914 7.29084 4.68761 7.29605 4.67599L7.30415 4.65861L7.30617 4.65426L7.30669 4.65316C7.30731 4.652 7.30305 4.65957 7.30502 4.65586L7.30578 4.65383L7.30889 4.64564C7.31719 4.6239 7.32563 4.60188 7.33414 4.57964C7.34894 4.53407 7.36528 4.48855 7.37827 4.44049C7.43276 4.24961 7.4662 4.0363 7.49066 3.81312C7.51612 3.59029 7.53474 3.35799 7.5739 3.13477C7.59328 3.02329 7.61833 2.91427 7.64996 2.81147C7.68153 2.70875 7.7223 2.61249 7.76928 2.52842C7.81696 2.44465 7.86868 2.37214 7.9242 2.31678C7.93712 2.30239 7.95096 2.28951 7.96471 2.27755C7.97812 2.26538 7.99125 2.25401 8.00385 2.24326C8.03089 2.22331 8.05512 2.20542 8.07804 2.1906C8.10219 2.17646 8.12347 2.16456 8.14188 2.1548C8.16014 2.14507 8.17661 2.13968 8.18962 2.13403C8.21605 2.12371 8.23018 2.11824 8.23018 2.11824C8.23018 2.11824 8.22103 2.13027 8.20383 2.15285C8.19548 2.16415 8.18361 2.17733 8.17219 2.19378C8.1613 2.20986 8.14884 2.22834 8.13486 2.24904C8.12242 2.27034 8.10871 2.29397 8.09371 2.31966C8.08186 2.34725 8.06523 2.37326 8.05379 2.40508C8.04757 2.42031 8.04112 2.4361 8.0345 2.45236C8.02904 2.46897 8.02334 2.48606 8.01755 2.5036C8.0114 2.52065 8.00724 2.53952 8.00191 2.55784C7.99649 2.57617 7.99166 2.59511 7.98795 2.61515C7.97036 2.69347 7.95746 2.77965 7.94952 2.87334C7.9409 2.96679 7.9368 3.06724 7.93314 3.17299C7.92607 3.38441 7.92228 3.61818 7.89586 3.85869C7.88245 3.97874 7.86271 4.10053 7.83386 4.21999C7.80518 4.33947 7.76649 4.45655 7.71804 4.5661C7.69439 4.621 7.6668 4.67359 7.63843 4.72392C7.62327 4.7486 7.60819 4.77301 7.59335 4.79712L7.58779 4.80611L7.58639 4.80835L7.5836 4.81313L7.58289 4.81412L7.5801 4.81805L7.56892 4.83363C7.56134 4.8439 7.55382 4.8541 7.54636 4.86428C7.48659 4.9454 7.42841 5.02116 7.37344 5.09038C7.34551 5.12472 7.31932 5.15796 7.29333 5.18896C7.26698 5.21977 7.24157 5.24891 7.21707 5.27579C7.16829 5.32978 7.12481 5.3761 7.08795 5.41366C7.01466 5.48899 6.96875 5.52941 6.96875 5.52941C6.96875 5.52941 6.98396 5.47049 7.01743 5.37201ZM7.81197 9.42734L7.81334 9.42608L7.81881 9.42105C7.8334 9.40771 7.84821 9.39421 7.86312 9.38056C7.89169 9.35155 7.92152 9.32341 7.94984 9.29194C8.06443 9.16834 8.17309 9.02031 8.28056 8.86059C8.38869 8.70163 8.49684 8.53228 8.61854 8.37778C8.67916 8.30055 8.74354 8.22744 8.81058 8.16179C8.87759 8.09622 8.9493 8.03931 9.02081 7.9945C9.09282 7.95021 9.16328 7.91647 9.22941 7.89771C9.24547 7.8922 9.26158 7.88824 9.27718 7.88495C9.29262 7.88131 9.30754 7.87827 9.32174 7.87547C9.35095 7.87181 9.37708 7.86854 9.40098 7.86715C9.42553 7.86671 9.44683 7.86683 9.46506 7.8674C9.48308 7.86795 9.49786 7.87104 9.51017 7.87241C9.53467 7.87621 9.54771 7.8782 9.54771 7.8782C9.54771 7.8782 9.53599 7.88426 9.51397 7.89567C9.50317 7.90144 9.48885 7.90732 9.47373 7.91599C9.45927 7.92452 9.44268 7.93431 9.42406 7.94529C9.40647 7.95723 9.38698 7.97045 9.36575 7.98484C9.34624 8.00191 9.3238 8.01575 9.3031 8.03608C9.25982 8.07262 9.21704 8.11985 9.17415 8.17288C9.1313 8.22627 9.08891 8.28719 9.04705 8.35575C9.00473 8.42385 8.96289 8.49906 8.91888 8.57854C8.83108 8.73745 8.73539 8.91506 8.6182 9.08919C8.5595 9.176 8.49495 9.26169 8.42392 9.34192C8.35305 9.42224 8.27507 9.49663 8.19246 9.561C8.15154 9.59353 8.10846 9.62276 8.06564 9.64964C8.04365 9.66234 8.02192 9.6749 8.00042 9.6873L7.99241 9.69189L7.99042 9.69304C7.99331 9.69114 7.98534 9.69626 7.98585 9.69592L7.98491 9.69638L7.98118 9.69818L7.96627 9.70544C7.95643 9.71035 7.94632 9.71472 7.93646 9.71932C7.85752 9.75608 7.78184 9.78923 7.71123 9.81863C7.67563 9.83283 7.64187 9.84708 7.60911 9.85953C7.5761 9.87167 7.54458 9.88309 7.51459 9.89297C7.45472 9.9131 7.40199 9.92964 7.35796 9.94218C7.27011 9.96766 7.21759 9.97805 7.21759 9.97805C7.21759 9.97805 7.2514 9.93703 7.31477 9.87254C7.37772 9.80705 7.47128 9.72154 7.58491 9.61883C7.6421 9.5682 7.70489 9.5147 7.77237 9.45977C7.78079 9.45289 7.78912 9.44573 7.79786 9.43903L7.81083 9.42878L7.81412 9.42619L7.8149 9.42558C7.8159 9.42489 7.80854 9.42962 7.81197 9.42734Z" fill="#879AA5"/>
</svg>
