<svg width="32" height="32" viewBox="0 0 32 32" fill="none" xmlns="http://www.w3.org/2000/svg">
<path d="M28.6258 30.9993C28.6178 30.9778 28.6102 30.9576 28.6043 30.9397C27.8465 28.6268 25.7013 27.0729 23.2662 27.0729C22.3869 27.0729 21.5472 27.2794 20.7966 27.6481C20.7185 27.574 20.6388 27.5014 20.557 27.4307C19.4442 26.4689 18.0567 25.8893 16.599 25.7665V23.6215C17.0314 23.413 17.6294 23.3769 18.3147 23.3359C19.6857 23.254 21.392 23.152 22.8409 21.5687C24.7045 19.5318 25.1006 15.8492 24.6899 14.9168C24.5482 14.5951 24.3223 14.5471 24.2002 14.5471C24.081 14.5471 23.9661 14.5909 23.8587 14.6771C23.4828 14.9786 22.8097 15.0149 22.0304 15.057C20.6636 15.1306 18.9626 15.2224 17.5632 16.7515C17.1786 17.1717 16.8599 17.6536 16.5991 18.1627V13.1892C16.9495 12.8233 17.4692 12.509 18.0525 12.1572C19.4077 11.3395 21.0945 10.3218 21.7238 7.93663C22.4562 5.1596 21.2153 1.59894 20.3446 0.468912C20.1015 0.153463 19.8714 0 19.641 0C19.5409 0 19.2932 0.0338821 19.1564 0.347501C18.9262 0.875236 18.2479 1.27905 17.4625 1.74676C16.1073 2.55371 14.4205 3.55794 13.813 5.86072C13.0473 8.76292 14.3622 12.1552 15.202 13.2451C15.224 13.2738 15.2458 13.3006 15.2675 13.3267V16.0176C15.0193 15.094 14.5509 14.1452 13.5432 13.3211C12.0141 12.0709 9.70437 11.6272 8.19107 11.6272C6.72452 11.6272 6.55312 12.0115 6.49686 12.1377C6.45838 12.2241 6.39187 12.4505 6.60546 12.6883C6.9275 13.0468 7.00122 13.7169 7.08655 14.4928C7.23615 15.8533 7.4224 17.5464 9.02693 18.8585C10.5268 20.0851 12.7097 20.5221 14.2524 20.5221C14.658 20.5221 14.9959 20.494 15.2676 20.4392V25.7834C13.8703 25.9346 12.5449 26.5053 11.4741 27.4308C11.3923 27.5014 11.3126 27.574 11.2345 27.6482C10.484 27.2795 9.64413 27.073 8.76487 27.073C7.60838 27.073 6.49764 27.4218 5.55287 28.0817C4.62994 28.7264 3.92835 29.6202 3.52412 30.6666C3.37338 31.0567 3.38357 31.3939 3.5534 31.6418C3.71633 31.8794 3.99795 32 4.39042 32H9.08978H14.3538H17.6772H22.9412H27.9823C28.283 32 28.4976 31.9107 28.6202 31.7347C28.8014 31.4744 28.6871 31.1653 28.6258 30.9993ZM13.8322 18.3091C13.8144 18.2916 13.7961 18.2745 13.7786 18.2565L13.7521 18.2295L13.7455 18.2227L13.7438 18.2211C13.7419 18.2188 13.7545 18.2344 13.7484 18.2272L13.7452 18.2243L13.7324 18.2131C13.6984 18.1834 13.6641 18.1532 13.6293 18.1227C13.5562 18.0652 13.4847 18.0045 13.4061 17.9481C13.0965 17.719 12.7327 17.5095 12.3428 17.3057C11.9544 17.1001 11.5424 16.8971 11.1608 16.6595C10.97 16.5414 10.7877 16.4135 10.6217 16.2777C10.4558 16.1421 10.3084 15.9935 10.1887 15.8423C10.07 15.6899 9.97553 15.5384 9.91613 15.3927C9.89961 15.3577 9.88659 15.3221 9.87514 15.2875C9.86295 15.2533 9.85229 15.2202 9.84241 15.1887C9.82677 15.1233 9.81271 15.0647 9.8035 15.0108C9.79639 14.9551 9.79116 14.9067 9.78798 14.8652C9.78458 14.8241 9.78792 14.7897 9.78798 14.7614C9.79033 14.7048 9.79164 14.6746 9.79164 14.6746C9.79164 14.6746 9.80842 14.6997 9.83984 14.7469C9.85569 14.77 9.87273 14.801 9.89626 14.8332C9.91932 14.8638 9.94567 14.8991 9.97537 14.9386C10.007 14.9756 10.0419 15.0165 10.0799 15.0611C10.1237 15.1012 10.1607 15.1486 10.212 15.1905C10.3059 15.2796 10.4241 15.3649 10.5553 15.4489C10.6874 15.5329 10.8364 15.6138 11.0028 15.6917C11.1681 15.7708 11.3496 15.8467 11.5413 15.9267C11.9244 16.0862 12.352 16.2587 12.7771 16.481C12.9892 16.5925 13.2001 16.7176 13.4002 16.8587C13.6006 16.9994 13.7892 17.1578 13.9563 17.3292C14.0405 17.4141 14.1178 17.5046 14.1897 17.595C14.224 17.6417 14.2581 17.6879 14.2916 17.7336L14.3041 17.7507L14.3073 17.7549C14.3022 17.7488 14.3159 17.7656 14.3149 17.7646L14.3162 17.7666L14.3212 17.7746L14.3414 17.8066C14.3551 17.8277 14.3676 17.8496 14.3805 17.8708C14.4839 18.0409 14.5783 18.2045 14.6628 18.3575C14.704 18.4348 14.7449 18.5079 14.7814 18.5792C14.8173 18.6511 14.8512 18.7198 14.8813 18.7855C14.9421 18.9164 14.993 19.032 15.0325 19.1289C15.1126 19.322 15.1494 19.4387 15.1494 19.4387C15.1494 19.4387 15.0477 19.3722 14.8852 19.2445C14.7205 19.1181 14.5027 18.9271 14.2407 18.6948C14.1113 18.5778 13.9739 18.4487 13.8322 18.3091ZM16.04 12.2789C16.0778 12.1661 16.1266 12.0309 16.1851 11.8777C16.2448 11.725 16.3124 11.5528 16.386 11.3648C16.4619 11.1779 16.5472 10.9772 16.6413 10.7672C16.6531 10.7409 16.6649 10.7145 16.6768 10.688L16.6953 10.6482L16.6999 10.6383L16.7011 10.6358C16.7025 10.6331 16.6928 10.6504 16.6973 10.642L16.699 10.6373L16.7062 10.6186C16.7251 10.5689 16.7444 10.5186 16.7639 10.4677C16.7977 10.3636 16.835 10.2595 16.8647 10.1497C16.9893 9.7134 17.0657 9.22582 17.1216 8.71571C17.1798 8.20638 17.2224 7.6754 17.3119 7.16518C17.3562 6.91039 17.4134 6.66118 17.4858 6.42621C17.5579 6.19144 17.6511 5.97141 17.7585 5.77926C17.8675 5.58778 17.9857 5.42203 18.1126 5.29549C18.1421 5.26261 18.1737 5.23317 18.2052 5.20582C18.2358 5.178 18.2658 5.15202 18.2946 5.12744C18.3564 5.08185 18.4118 5.04096 18.4642 5.00708C18.5194 4.97476 18.568 4.94758 18.6101 4.92525C18.6519 4.90303 18.6895 4.89069 18.7193 4.87777C18.7797 4.85419 18.812 4.84169 18.812 4.84169C18.812 4.84169 18.7911 4.8692 18.7517 4.9208C18.7326 4.94663 18.7055 4.97675 18.6794 5.01435C18.6545 5.0511 18.626 5.09335 18.5941 5.14067C18.5656 5.18935 18.5343 5.24336 18.5 5.30208C18.4729 5.36514 18.4349 5.42459 18.4088 5.49732C18.3946 5.53215 18.3798 5.56822 18.3647 5.6054C18.3522 5.64336 18.3392 5.68242 18.326 5.72252C18.3119 5.76148 18.3024 5.80462 18.2902 5.8465C18.2778 5.88838 18.2668 5.93167 18.2583 5.97748C18.2181 6.15651 18.1886 6.35347 18.1705 6.56764C18.1507 6.78124 18.1414 7.01083 18.133 7.25255C18.1169 7.73579 18.1082 8.27011 18.0478 8.81986C18.0171 9.09427 17.972 9.37264 17.9061 9.64569C17.8405 9.91878 17.7521 10.1864 17.6414 10.4368C17.5873 10.5623 17.5242 10.6825 17.4594 10.7975C17.4247 10.8539 17.3903 10.9097 17.3563 10.9648L17.3436 10.9854L17.3404 10.9905L17.3341 11.0014L17.3324 11.0037L17.3261 11.0127L17.3005 11.0483C17.2832 11.0718 17.266 11.0951 17.2489 11.1184C17.1123 11.3038 16.9794 11.4769 16.8537 11.6352C16.7899 11.7136 16.73 11.7896 16.6706 11.8605C16.6104 11.9309 16.5523 11.9975 16.4963 12.059C16.3848 12.1824 16.2854 12.2882 16.2012 12.3741C16.0336 12.5463 15.9287 12.6387 15.9287 12.6387C15.9287 12.6387 15.9635 12.504 16.04 12.2789ZM17.8561 21.5482L17.8592 21.5453L17.8717 21.5338C17.905 21.5033 17.9389 21.4725 17.973 21.4413C18.0383 21.375 18.1065 21.3107 18.1712 21.2387C18.4331 20.9562 18.6815 20.6179 18.9271 20.2528C19.1743 19.8894 19.4215 19.5024 19.6996 19.1492C19.8382 18.9727 19.9853 18.8056 20.1386 18.6555C20.2917 18.5057 20.4557 18.3756 20.6191 18.2731C20.7837 18.1719 20.9448 18.0948 21.0959 18.0519C21.1326 18.0393 21.1694 18.0303 21.2051 18.0227C21.2404 18.0144 21.2745 18.0075 21.307 18.0011C21.3737 17.9927 21.4334 17.9852 21.4881 17.982C21.5442 17.9811 21.5929 17.9813 21.6345 17.9826C21.6757 17.9839 21.7095 17.9909 21.7376 17.9941C21.7936 18.0028 21.8235 18.0073 21.8235 18.0073C21.8235 18.0073 21.7967 18.0212 21.7463 18.0473C21.7216 18.0604 21.6889 18.0739 21.6544 18.0937C21.6213 18.1132 21.5834 18.1356 21.5408 18.1607C21.5006 18.188 21.4561 18.2182 21.4076 18.2511C21.363 18.2901 21.3117 18.3217 21.2643 18.3682C21.1654 18.4517 21.0676 18.5597 20.9696 18.6809C20.8717 18.8029 20.7748 18.9422 20.6791 19.0989C20.5824 19.2545 20.4867 19.4264 20.3861 19.6081C20.1854 19.9713 19.9667 20.3773 19.6989 20.7753C19.5647 20.9737 19.4171 21.1696 19.2548 21.353C19.0928 21.5365 18.9146 21.7066 18.7257 21.8537C18.6322 21.9281 18.5337 21.9949 18.4359 22.0563C18.3856 22.0853 18.3359 22.114 18.2868 22.1424L18.2685 22.1529L18.2639 22.1555C18.2705 22.1512 18.2523 22.1629 18.2535 22.1621L18.2513 22.1631L18.2428 22.1673L18.2087 22.1839C18.1862 22.1951 18.1631 22.2051 18.1406 22.2156C17.9602 22.2996 17.7872 22.3754 17.6258 22.4426C17.5444 22.475 17.4672 22.5076 17.3924 22.5361C17.3169 22.5638 17.2449 22.5899 17.1763 22.6125C17.0395 22.6585 16.919 22.6963 16.8183 22.725C16.6175 22.7832 16.4975 22.807 16.4975 22.807C16.4975 22.807 16.5748 22.7132 16.7196 22.5658C16.8635 22.4161 17.0773 22.2207 17.337 21.9859C17.4678 21.8702 17.6113 21.7479 17.7655 21.6223C17.7848 21.6066 17.8038 21.5902 17.8238 21.5749L17.8534 21.5515L17.861 21.5456L17.8627 21.5442C17.865 21.5426 17.8482 21.5534 17.8561 21.5482Z" fill="#1D2639"/>
</svg>
