<svg width="32" height="32" viewBox="0 0 32 32" fill="none" xmlns="http://www.w3.org/2000/svg">
<path d="M17.4219 15.4111V9.08594C17.4219 8.30064 16.7853 7.66406 16 7.66406C15.2147 7.66406 14.5781 8.30064 14.5781 9.08594V16C14.5781 16.3771 14.7279 16.7388 14.9946 17.0054C14.9946 17.0054 14.9946 17.0054 14.9946 17.0054L19.604 21.6148C20.1592 22.17 21.0595 22.1701 21.6148 21.6148L17.4219 15.4111ZM17.4219 15.4111L21.6148 19.604C22.1701 20.1593 22.1701 21.0595 21.6148 21.6148L17.4219 15.4111ZM20.6094 0.75H11.3906C9.04926 0.75 6.73668 1.51669 4.82709 3.01659V2.17188C4.82709 1.38658 4.19051 0.75 3.40521 0.75C2.61992 0.75 1.98334 1.38658 1.98334 2.17188V6.78127C1.98334 7.56719 2.62506 8.20314 3.40521 8.20314H8.01461C8.79991 8.20314 9.43648 7.56657 9.43648 6.78127C9.43648 5.99597 8.79991 5.35939 8.01461 5.35939H6.45591C7.83077 4.23735 9.57065 3.59375 11.3906 3.59375H20.6093C24.9084 3.59375 28.4062 7.09161 28.4062 11.3906V20.6093C28.4062 24.9084 24.9084 28.4062 20.6094 28.4062H11.3906C7.09161 28.4062 3.59375 24.9084 3.59375 20.6094V16C3.59375 15.2147 2.95717 14.5781 2.17188 14.5781C1.38658 14.5781 0.75 15.2147 0.75 16V20.6094C0.75 26.4769 5.52312 31.25 11.3906 31.25H20.6093C26.4769 31.25 31.25 26.4769 31.25 20.6094V11.3906C31.25 5.52312 26.4769 0.75 20.6094 0.75Z" fill="#1D2639" stroke="#1D2639" stroke-width="0.5"/>
</svg>
