<svg width="16" height="16" viewBox="0 0 16 16" fill="none" xmlns="http://www.w3.org/2000/svg">
<path d="M8.71094 7.70553V4.54297C8.71094 4.15032 8.39265 3.83203 8 3.83203C7.60735 3.83203 7.28906 4.15032 7.28906 4.54297V8C7.28906 8.18853 7.36395 8.36939 7.4973 8.5027C7.4973 8.50271 7.4973 8.50271 7.49731 8.50272L9.80199 10.8074C10.0796 11.085 10.5297 11.0851 10.8074 10.8074L8.71094 7.70553ZM8.71094 7.70553L10.8074 9.80199C11.085 10.0796 11.0851 10.5298 10.8074 10.8074L8.71094 7.70553ZM10.3047 0.375H5.6953C4.52463 0.375 3.36834 0.758347 2.41354 1.50829V1.08594C2.41354 0.693289 2.09526 0.375 1.70261 0.375C1.30996 0.375 0.99167 0.693289 0.99167 1.08594V3.39063C0.99167 3.7836 1.31253 4.10157 1.70261 4.10157H4.0073C4.39995 4.10157 4.71824 3.78328 4.71824 3.39063C4.71824 2.99799 4.39995 2.6797 4.0073 2.6797H3.22796C3.91538 2.11867 4.78532 1.79688 5.6953 1.79688H10.3047C12.4542 1.79688 14.2031 3.5458 14.2031 5.6953V10.3047C14.2031 12.4542 12.4542 14.2031 10.3047 14.2031H5.6953C3.5458 14.2031 1.79688 12.4542 1.79688 10.3047V8C1.79688 7.60735 1.47859 7.28906 1.08594 7.28906C0.693289 7.28906 0.375 7.60735 0.375 8V10.3047C0.375 13.2384 2.76156 15.625 5.6953 15.625H10.3047C13.2384 15.625 15.625 13.2384 15.625 10.3047V5.6953C15.625 2.76156 13.2384 0.375 10.3047 0.375Z" fill="white" stroke="white" stroke-width="0.25"/>
</svg>
