<svg width="20" height="20" viewBox="0 0 20 20" fill="none" xmlns="http://www.w3.org/2000/svg">
<circle cx="10" cy="10" r="10" fill="#879AA5"/>
<path fill-rule="evenodd" clip-rule="evenodd" d="M11.7926 13.5361V14.375H10.4692H10.1555H8.83186V13.5361H10.1555H10.1642H10.2079H10.2138H10.2542H10.2691H10.3036H10.3211H10.3554H10.3702H10.4107H10.4163H10.46H10.4687H11.7926ZM5 9.57368V9.58739V10.4122V10.4263H10.1882H10.4371H15.625V10.4122V9.58739V9.57368H10.4368H10.1879H5ZM6.51489 7.56302H14.1101V7.63269V8.33938V8.40173H6.51489V8.33938V7.63269V7.56302ZM11.7926 6.46371V5.625H10.4692H10.1555H8.83186V6.46371H10.1555H10.1642H10.2079H10.2138H10.2542H10.2691H10.3036H10.3211H10.3554H10.3702H10.4107H10.4163H10.46H10.4687H11.7926ZM14.1101 11.6606V12.3675V12.4333H6.51489V12.3675V11.6606V11.5946H14.1101V11.6606Z" fill="#1D2639"/>
</svg>
