<svg width="16" height="16" viewBox="0 0 16 16" fill="none" xmlns="http://www.w3.org/2000/svg">
<path d="M2.66675 8C2.66992 6.45148 3.21205 4.95236 4.20009 3.76C4.31325 3.62386 4.36769 3.44834 4.35143 3.27205C4.33518 3.09577 4.24956 2.93316 4.11342 2.82C3.97727 2.70684 3.80175 2.6524 3.62547 2.66865C3.44918 2.68491 3.28658 2.77052 3.17342 2.90667C1.9899 4.34016 1.34253 6.14107 1.34253 8C1.34253 9.85893 1.9899 11.6598 3.17342 13.0933C3.2361 13.1686 3.31459 13.2291 3.40332 13.2706C3.49204 13.3121 3.58881 13.3335 3.68675 13.3333C3.84252 13.3336 3.99348 13.2794 4.11342 13.18C4.18092 13.124 4.23673 13.0553 4.27763 12.9777C4.31853 12.9002 4.34373 12.8153 4.35178 12.728C4.35983 12.6407 4.35057 12.5526 4.32454 12.4689C4.29851 12.3851 4.25622 12.3074 4.20009 12.24C3.21205 11.0476 2.66992 9.54852 2.66675 8Z" fill="#879AA5"/>
<path d="M8.00008 9.33332C8.73646 9.33332 9.33341 8.73637 9.33341 7.99999C9.33341 7.26361 8.73646 6.66666 8.00008 6.66666C7.2637 6.66666 6.66675 7.26361 6.66675 7.99999C6.66675 8.73637 7.2637 9.33332 8.00008 9.33332Z" fill="#879AA5"/>
<path d="M11.3733 5.65334C11.3349 5.56833 11.279 5.49234 11.2094 5.43027C11.1398 5.36819 11.0579 5.32142 10.9691 5.29298C10.8802 5.26453 10.7864 5.25505 10.6937 5.26514C10.6009 5.27523 10.5114 5.30467 10.4307 5.35156C10.3501 5.39844 10.2802 5.46173 10.2255 5.53733C10.1709 5.61293 10.1327 5.69915 10.1134 5.79043C10.0942 5.88171 10.0943 5.976 10.1138 6.06723C10.1333 6.15845 10.1718 6.24456 10.2266 6.32001C10.5192 6.82674 10.6732 7.40155 10.6732 7.98667C10.6732 8.57179 10.5192 9.14661 10.2266 9.65334C10.1807 9.72851 10.1501 9.81204 10.1366 9.89911C10.1231 9.98618 10.127 10.0751 10.1481 10.1606C10.1692 10.2462 10.207 10.3267 10.2594 10.3975C10.3118 10.4684 10.3777 10.5281 10.4533 10.5733C10.5593 10.6327 10.6785 10.6648 10.8 10.6667C10.915 10.6673 11.0283 10.6382 11.1288 10.5821C11.2292 10.5261 11.3135 10.445 11.3733 10.3467C11.779 9.63594 11.9924 8.83171 11.9924 8.01334C11.9924 7.19497 11.779 6.39073 11.3733 5.68001V5.65334Z" fill="#879AA5"/>
<path d="M5.54666 5.42668C5.47149 5.38071 5.38796 5.3501 5.30088 5.33662C5.21381 5.32313 5.12493 5.32705 5.03938 5.34812C4.95383 5.3692 4.87331 5.40703 4.80247 5.45942C4.73163 5.51181 4.67187 5.57772 4.62666 5.65334C4.22095 6.36407 4.00757 7.1683 4.00757 7.98668C4.00757 8.80505 4.22095 9.60928 4.62666 10.32C4.68313 10.4233 4.76591 10.5097 4.86661 10.5706C4.96731 10.6315 5.08233 10.6646 5.19999 10.6667C5.3215 10.6648 5.44062 10.6327 5.54666 10.5733C5.62228 10.5281 5.6882 10.4684 5.74059 10.3975C5.79297 10.3267 5.8308 10.2462 5.85188 10.1606C5.87296 10.0751 5.87687 9.98619 5.86338 9.89912C5.8499 9.81205 5.81929 9.72851 5.77333 9.65334C5.48076 9.14661 5.32674 8.5718 5.32674 7.98668C5.32674 7.40155 5.48076 6.82674 5.77333 6.32001C5.85784 6.17057 5.88145 5.99428 5.83922 5.82787C5.797 5.66145 5.6922 5.51775 5.54666 5.42668Z" fill="#879AA5"/>
<path d="M12.8335 2.90667C12.7775 2.83926 12.7087 2.78354 12.6312 2.7427C12.5536 2.70186 12.4688 2.6767 12.3815 2.66865C12.2052 2.6524 12.0297 2.70684 11.8935 2.82C11.7574 2.93316 11.6718 3.09577 11.6555 3.27205C11.6392 3.44834 11.6937 3.62386 11.8068 3.76C12.7908 4.95391 13.3289 6.45287 13.3289 8C13.3289 9.54713 12.7908 11.0461 11.8068 12.24C11.7507 12.3074 11.7084 12.3851 11.6824 12.4689C11.6564 12.5526 11.6471 12.6407 11.6552 12.728C11.6632 12.8153 11.6884 12.9002 11.7293 12.9777C11.7702 13.0553 11.826 13.124 11.8935 13.18C12.0135 13.2794 12.1644 13.3336 12.3202 13.3333C12.4181 13.3335 12.5149 13.3121 12.6036 13.2706C12.6923 13.2291 12.7708 13.1686 12.8335 13.0933C14.017 11.6598 14.6644 9.85893 14.6644 8C14.6644 6.14107 14.017 4.34016 12.8335 2.90667Z" fill="#879AA5"/>
</svg>
