<svg width="32" height="32" viewBox="0 0 32 32" fill="none" xmlns="http://www.w3.org/2000/svg">
<path d="M5.33338 16C5.33972 12.903 6.42399 9.90472 8.40005 7.52C8.62637 7.24771 8.73525 6.89667 8.70274 6.5441C8.67024 6.19153 8.49901 5.86632 8.22672 5.64C7.95443 5.41368 7.60339 5.3048 7.25082 5.33731C6.89825 5.36981 6.57303 5.54105 6.34671 5.81333C3.97967 8.68033 2.68494 12.2821 2.68494 16C2.68494 19.7179 3.97967 23.3197 6.34671 26.1867C6.47208 26.3372 6.62906 26.4582 6.80651 26.5412C6.98396 26.6241 7.1775 26.667 7.37338 26.6667C7.68492 26.6673 7.98683 26.5588 8.22672 26.36C8.36173 26.2481 8.47333 26.1106 8.55513 25.9555C8.63694 25.8003 8.68733 25.6306 8.70343 25.456C8.71953 25.2813 8.70102 25.1052 8.64896 24.9378C8.59691 24.7703 8.51232 24.6147 8.40005 24.48C6.42399 22.0953 5.33972 19.097 5.33338 16Z" fill="#1D2639"/>
<path d="M16 18.6667C17.4728 18.6667 18.6667 17.4728 18.6667 16C18.6667 14.5272 17.4728 13.3333 16 13.3333C14.5273 13.3333 13.3334 14.5272 13.3334 16C13.3334 17.4728 14.5273 18.6667 16 18.6667Z" fill="#1D2639"/>
<path d="M22.7467 11.3067C22.6699 11.1367 22.5582 10.9847 22.419 10.8605C22.2797 10.7364 22.1159 10.6428 21.9383 10.586C21.7606 10.5291 21.5729 10.5101 21.3875 10.5303C21.202 10.5505 21.0228 10.6093 20.8615 10.7031C20.7003 10.7969 20.5604 10.9235 20.4511 11.0747C20.3418 11.2259 20.2655 11.3983 20.227 11.5809C20.1885 11.7634 20.1888 11.952 20.2278 12.1345C20.2668 12.3169 20.3436 12.4891 20.4534 12.64C21.0385 13.6535 21.3465 14.8031 21.3465 15.9733C21.3465 17.1436 21.0385 18.2932 20.4534 19.3067C20.3614 19.457 20.3002 19.6241 20.2733 19.7982C20.2463 19.9724 20.2541 20.1501 20.2963 20.3212C20.3384 20.4923 20.4141 20.6534 20.5189 20.7951C20.6236 20.9367 20.7555 21.0563 20.9067 21.1467C21.1188 21.2654 21.357 21.3295 21.6 21.3333C21.8302 21.3347 22.0567 21.2764 22.2576 21.1643C22.4586 21.0521 22.6271 20.8899 22.7467 20.6933C23.5581 19.2719 23.9849 17.6634 23.9849 16.0267C23.9849 14.3899 23.5581 12.7815 22.7467 11.36V11.3067Z" fill="#1D2639"/>
<path d="M11.0933 10.8533C10.943 10.7614 10.7759 10.7002 10.6018 10.6732C10.4276 10.6462 10.2499 10.6541 10.0788 10.6962C9.90767 10.7384 9.74662 10.814 9.60493 10.9188C9.46325 11.0236 9.34374 11.1554 9.25332 11.3067C8.4419 12.7281 8.01514 14.3366 8.01514 15.9733C8.01514 17.6101 8.4419 19.2185 9.25332 20.64C9.36625 20.8465 9.53183 21.0194 9.73323 21.1412C9.93463 21.2629 10.1647 21.3292 10.4 21.3333C10.643 21.3295 10.8812 21.2654 11.0933 21.1467C11.2446 21.0562 11.3764 20.9367 11.4812 20.795C11.5859 20.6534 11.6616 20.4923 11.7038 20.3212C11.7459 20.1501 11.7537 19.9723 11.7268 19.7982C11.6998 19.6241 11.6386 19.457 11.5467 19.3067C10.9615 18.2932 10.6535 17.1436 10.6535 15.9733C10.6535 14.8031 10.9615 13.6535 11.5467 12.64C11.7157 12.3411 11.7629 11.9885 11.6784 11.6557C11.594 11.3229 11.3844 11.0355 11.0933 10.8533Z" fill="#1D2639"/>
<path d="M25.6667 5.81333C25.5546 5.67851 25.4171 5.56708 25.262 5.4854C25.1068 5.40373 24.9371 5.3534 24.7626 5.33731C24.41 5.3048 24.059 5.41368 23.7867 5.64C23.5144 5.86632 23.3431 6.19153 23.3106 6.5441C23.2781 6.89667 23.387 7.24771 23.6133 7.52C25.5813 9.90781 26.6575 12.9057 26.6575 16C26.6575 19.0943 25.5813 22.0922 23.6133 24.48C23.5011 24.6147 23.4165 24.7703 23.3644 24.9378C23.3124 25.1052 23.2939 25.2813 23.31 25.456C23.3261 25.6306 23.3764 25.8003 23.4583 25.9555C23.5401 26.1106 23.6517 26.2481 23.7867 26.36C24.0265 26.5588 24.3285 26.6673 24.64 26.6667C24.8359 26.667 25.0294 26.6241 25.2069 26.5412C25.3843 26.4582 25.5413 26.3372 25.6667 26.1867C28.0337 23.3197 29.3284 19.7179 29.3284 16C29.3284 12.2821 28.0337 8.68033 25.6667 5.81333Z" fill="#1D2639"/>
</svg>
