<svg width="24" height="24" viewBox="0 0 24 24" fill="none" xmlns="http://www.w3.org/2000/svg">
<path d="M18.2308 9H17.5385V6C17.5385 2.691 15.0545 0 12 0C8.94555 0 6.46155 2.691 6.46155 6V9H5.76924C4.62463 9 3.69232 10.009 3.69232 11.25V21.75C3.69232 22.991 4.62463 24 5.76924 24H18.2308C19.3754 24 20.3077 22.991 20.3077 21.75V11.25C20.3077 10.009 19.3754 9 18.2308 9ZM8.30771 6C8.30771 3.794 9.96371 2 12 2C14.0363 2 15.6923 3.794 15.6923 6V9H8.30771V6ZM12.9231 16.722V19C12.9231 19.552 12.5105 20 12 20C11.4896 20 11.0769 19.552 11.0769 19V16.722C10.5277 16.375 10.1539 15.737 10.1539 15C10.1539 13.897 10.9819 13 12 13C13.0182 13 13.8462 13.897 13.8462 15C13.8462 15.737 13.4723 16.375 12.9231 16.722Z" fill="#1D2639"/>
</svg>
