<svg width="24" height="24" viewBox="0 0 24 24" fill="none" xmlns="http://www.w3.org/2000/svg">
<path d="M21.4848 16.0704C21.4023 16.0025 21.2988 15.9654 21.192 15.9654C21.0852 15.9654 20.9817 16.0025 20.8992 16.0704C19.5314 16.9397 17.9406 17.3933 16.32 17.376C14.6276 17.3622 12.977 16.8484 11.5758 15.899C10.1746 14.9496 9.08543 13.6072 8.44519 12.0404C7.80495 10.4737 7.64225 8.75264 7.97755 7.09368C8.31284 5.43472 9.13116 3.91193 10.3296 2.71681C10.4051 2.64327 10.4537 2.54653 10.4676 2.44209C10.4815 2.33764 10.46 2.23155 10.4064 2.14081C10.3533 2.05029 10.2719 1.97968 10.1748 1.9398C10.0777 1.89992 9.97022 1.89297 9.8688 1.92001C7.50031 2.60261 5.45587 4.11338 4.10796 6.17707C2.76005 8.24076 2.19839 10.72 2.5253 13.1631C2.85221 15.6062 4.04594 17.8506 5.889 19.4873C7.73206 21.124 10.1018 22.0441 12.5664 22.08C14.4251 22.0819 16.2488 21.5747 17.8397 20.6135C19.4305 19.6522 20.7277 18.2736 21.5904 16.6272C21.6357 16.5355 21.6499 16.4316 21.6309 16.3311C21.6118 16.2307 21.5605 16.1391 21.4848 16.0704Z" fill="#1D2639"/>
</svg>
