<svg width="24" height="24" viewBox="0 0 24 24" fill="none" xmlns="http://www.w3.org/2000/svg">
<path d="M22.3636 9.81821H14.1818V1.63637C14.1818 0.73309 13.4487 0 12.5454 0H11.4546C10.5513 0 9.81821 0.73309 9.81821 1.63637V9.81821H1.63637C0.73309 9.81821 0 10.5513 0 11.4546V12.5454C0 13.4487 0.73309 14.1818 1.63637 14.1818H9.81821V22.3636C9.81821 23.2669 10.5513 24 11.4546 24H12.5454C13.4487 24 14.1818 23.2669 14.1818 22.3636V14.1818H22.3636C23.2669 14.1818 24 13.4487 24 12.5454V11.4546C24 10.5513 23.2669 9.81821 22.3636 9.81821Z" fill="#1D2639"/>
</svg>
