<svg width="14" height="14" viewBox="0 0 14 14" fill="none" xmlns="http://www.w3.org/2000/svg">
<path d="M0.699951 12.5979C0.699951 13.3712 1.32785 14 2.09996 14H6.29996V8.39172H0.699951V12.5979Z" fill="white"/>
<path d="M7.69995 14H11.8999C12.6727 14 13.3 13.3712 13.3 12.5979V8.39172H7.69995V14Z" fill="white"/>
<path d="M12.6 4.18553H10.4202C10.7359 4.0208 11.0348 3.8196 11.2847 3.57002C12.103 2.7505 12.103 1.41644 11.2847 0.594823C10.4902 -0.198044 9.10979 -0.198735 8.3153 0.595514C7.16939 1.74311 7.01541 3.903 7.0014 4.14554C6.99998 4.15957 7.00701 4.17147 7.00701 4.1855H6.99299C6.99299 4.17147 6.99998 4.15957 6.99861 4.14485C6.98532 3.90231 6.83061 1.74242 5.6847 0.594823C4.89021 -0.198044 3.50841 -0.198044 2.7153 0.596236C1.8963 1.41575 1.8963 2.74981 2.7153 3.57002C2.9652 3.8196 3.26409 4.02077 3.57981 4.18553H1.40001C0.6279 4.18553 0 4.81436 0 5.58761V7.69071H6.3V4.88659H7.70001V7.69071H14V5.58761C14 4.81436 13.3728 4.18553 12.6 4.18553ZM3.70509 2.57877C3.43209 2.30467 3.43209 1.8602 3.70509 1.5868C3.8367 1.4543 4.01238 1.3821 4.2 1.3821C4.38759 1.3821 4.5633 1.4543 4.69491 1.5868C5.10792 2.00042 5.3487 2.74209 5.47752 3.3604C4.8615 3.23214 4.11531 2.98959 3.70509 2.57877ZM8.52179 3.36184C8.65131 2.74284 8.89139 2.00114 9.30509 1.58752C9.4367 1.45433 9.61238 1.3821 9.8 1.3821C9.98759 1.3821 10.1633 1.4543 10.2942 1.58611C10.5672 1.8602 10.5679 2.30467 10.2949 2.57877C9.88118 2.99308 9.13988 3.23424 8.52179 3.36184Z" fill="white"/>
</svg>
