<svg width="24" height="24" viewBox="0 0 24 24" fill="none" xmlns="http://www.w3.org/2000/svg">
<g clip-path="url(#clip0_57_24217)">
<path d="M14.8125 7.1248C15.0562 7.1248 15.2822 6.99845 15.4105 6.79118C15.5389 6.58372 15.5506 6.32499 15.4415 6.10728L12.629 0.404281C12.39 -0.0723418 11.61 -0.0723418 11.3711 0.404281L8.55856 6.10728C8.44943 6.32499 8.46114 6.58372 8.5895 6.79118C8.71786 6.99845 8.94381 7.1248 9.18752 7.1248H14.8125Z" fill="#1D2639"/>
<path d="M7.15228 8.91962L4.33996 14.5446C4.23065 14.7623 4.24236 15.0211 4.37072 15.2285C4.49926 15.4358 4.72503 15.5621 4.96893 15.5621H19.0311C19.2748 15.5621 19.5007 15.4358 19.6293 15.2285C19.7576 15.0211 19.7692 14.7623 19.66 14.5446L16.8475 8.91962C16.7282 8.6814 16.4852 8.53107 16.2188 8.53107H7.78125C7.51501 8.53107 7.27185 8.6814 7.15228 8.91962Z" fill="#1D2639"/>
<path d="M0.105249 23.7127C0.233606 23.9202 0.459558 24.0465 0.703271 24.0465H23.2967C23.5404 24.0465 23.7663 23.9202 23.8947 23.7127C24.0231 23.5055 24.0348 23.2466 23.9256 23.0288L21.1131 17.3571C20.9938 17.1187 20.7506 16.9684 20.4842 16.9684H3.51577C3.24935 16.9684 3.00619 17.1187 2.88681 17.3571L0.0743037 23.0288C-0.0348272 23.2466 -0.0231085 23.5055 0.105249 23.7127Z" fill="#1D2639"/>
</g>
<defs>
<clipPath id="clip0_57_24217">
<rect width="24" height="24" fill="white"/>
</clipPath>
</defs>
</svg>
