<svg width="24" height="24" viewBox="0 0 24 24" fill="none" xmlns="http://www.w3.org/2000/svg">
<g clip-path="url(#clip0_10_5382)">
<path d="M10.8069 0.561562L3.24312 9.32633C2.91896 9.72272 2.91896 10.3393 3.24312 10.7357C3.38719 10.9119 3.6033 11 3.85543 11L20.1356 11C20.6038 11 21 10.5596 21 10.031C21 9.76677 20.8919 9.5025 20.7479 9.32633L13.1841 0.561562C12.5358 -0.187187 11.4552 -0.187187 10.8069 0.561562Z" fill="#1D2639"/>
<path d="M13.1931 23.4384L20.7569 14.6737C21.081 14.2773 21.081 13.6607 20.7569 13.2643C20.6128 13.0881 20.3967 13 20.1446 13H3.86443C3.3962 13 3 13.4404 3 13.969C3 14.2332 3.10805 14.4975 3.25213 14.6737L10.8159 23.4384C11.4642 24.1872 12.5448 24.1872 13.1931 23.4384Z" fill="#1D2639"/>
</g>
<defs>
<clipPath id="clip0_10_5382">
<rect width="24" height="24" fill="white"/>
</clipPath>
</defs>
</svg>
