<svg width="24" height="24" viewBox="0 0 24 24" fill="none" xmlns="http://www.w3.org/2000/svg">
<path fill-rule="evenodd" clip-rule="evenodd" d="M14.4403 13.2891V13.2867C14.3036 13.2962 13.5991 13.3363 12.0273 13.3363C10.7724 13.3363 9.889 13.3009 9.57838 13.2867V13.2903C4.74757 13.0884 1.14185 12.2893 1.14185 11.3332C1.14185 10.3783 4.74757 9.57917 9.57838 9.37379V12.4947C9.89397 12.5159 10.7985 12.5667 12.0485 12.5667C13.5481 12.5667 14.2999 12.5077 14.4403 12.4959V9.37615C19.2611 9.58035 22.8582 10.3795 22.8582 11.3332C22.8582 12.2893 19.2611 13.0861 14.4403 13.2891ZM14.4403 9.05154V6.25878H21.1671V2H2.85152V6.25878H9.57838V9.05036C4.11141 9.2888 0 10.3181 0 11.5504C0 12.7827 4.11141 13.8108 9.57838 14.0504V23H14.4403V14.0481C19.8985 13.8096 24 12.7815 24 11.5504C24 10.3193 19.8985 9.29116 14.4403 9.05154Z" fill="#1D2639"/>
</svg>
