<svg width="18" height="18" viewBox="0 0 18 18" fill="none" xmlns="http://www.w3.org/2000/svg">
<path d="M9.00005 16.2C12.9765 16.2 16.2 12.9765 16.2 9.00002C16.2 5.02357 12.9765 1.80002 9.00005 1.80002C5.0236 1.80002 1.80005 5.02357 1.80005 9.00002C1.80005 12.9765 5.0236 16.2 9.00005 16.2Z" fill="#FF3131"/>
<path d="M13.3786 7.10654C12.9977 6.82584 12.5904 6.52659 12.1919 6.22965C12.1831 6.22269 12.1743 6.21573 12.1633 6.20877C12.1193 6.17398 12.0686 6.13686 12.007 6.11598L12.0026 6.11366C10.937 5.84224 9.85378 5.56387 8.80581 5.29477C7.85471 5.05119 6.90581 4.80761 5.95471 4.56403C5.93049 4.55707 5.90628 4.55011 5.87986 4.54315C5.79399 4.51764 5.69492 4.4898 5.58924 4.50372C5.55842 4.50836 5.532 4.51996 5.50778 4.53619L5.48136 4.55939C5.43953 4.60115 5.41752 4.6545 5.40651 4.68466L5.3999 4.70322V4.80993L5.40431 4.82617C6.00535 6.60082 6.6218 8.40099 7.21624 10.1432C7.67418 11.484 8.14973 12.8736 8.61427 14.2376C8.64289 14.3304 8.72435 14.3907 8.82563 14.4H8.84764C8.94231 14.4 9.02597 14.3513 9.06781 14.2724L10.8115 11.593C11.2364 10.9412 11.6613 10.287 12.0862 9.63512C12.2602 9.36835 12.4341 9.09925 12.608 8.83247C12.8942 8.39171 13.1892 7.93703 13.4821 7.49394L13.4975 7.47075V7.44291C13.5041 7.36172 13.5063 7.19469 13.3786 7.10654ZM11.3355 8.08317C10.926 8.3082 10.5077 8.54018 10.0872 8.76984C10.3315 8.49378 10.5781 8.2154 10.8225 7.93935C11.1285 7.59138 11.4478 7.23181 11.7604 6.8792L11.767 6.87224C11.7934 6.83512 11.8264 6.80032 11.8617 6.76321C11.8859 6.73769 11.9123 6.71217 11.9365 6.68201C12.0994 6.80032 12.2646 6.92095 12.4231 7.03926C12.5376 7.1251 12.6542 7.21093 12.7731 7.29676C12.2888 7.55658 11.8044 7.82336 11.3355 8.08317ZM10.2831 7.97182C9.96827 8.33139 9.64243 8.70024 9.31879 9.06445C8.69133 8.2618 8.05066 7.44755 7.4298 6.66113C7.14799 6.30388 6.86398 5.94432 6.58217 5.58707L6.57997 5.58475C6.51612 5.50819 6.45448 5.42468 6.39283 5.34581C6.3532 5.29245 6.31137 5.24141 6.26954 5.18806C6.52493 5.25765 6.78252 5.32261 7.03571 5.38524C7.25807 5.44092 7.48924 5.49891 7.71601 5.55923C8.99295 5.88632 10.2721 6.21341 11.549 6.5405C11.1241 7.01838 10.697 7.50322 10.2831 7.97182ZM9.17568 12.4931C9.1999 12.2495 9.22632 11.999 9.24834 11.7531C9.26815 11.5559 9.28797 11.3541 9.30778 11.1616C9.3386 10.853 9.37163 10.5329 9.39805 10.2197L9.40465 10.164C9.42667 9.96454 9.44869 9.75807 9.4619 9.55161C9.48611 9.53769 9.51253 9.52377 9.54115 9.51217C9.57418 9.49594 9.6072 9.48202 9.64023 9.46114C10.1488 9.18044 10.6574 8.89975 11.1682 8.62137C11.6767 8.34299 12.1985 8.05534 12.7159 7.77C12.2447 8.48914 11.7714 9.21524 11.3135 9.92278C10.9194 10.5282 10.5143 11.1523 10.1114 11.767C9.95286 12.0129 9.78774 12.2635 9.63142 12.5047C9.45529 12.7738 9.27476 13.0499 9.09863 13.3259C9.12064 13.0476 9.14706 12.7669 9.17568 12.4931ZM6.10662 5.73553C6.078 5.65202 6.04718 5.56619 6.02076 5.48499C6.6152 6.24125 7.21404 7.00215 7.79747 7.73984C8.09909 8.12261 8.40071 8.50306 8.70234 8.88815C8.76178 8.96006 8.82122 9.03661 8.87847 9.11085C8.95332 9.20596 9.02818 9.30571 9.10964 9.40082C9.08322 9.63976 9.0612 9.88102 9.03698 10.113C9.02157 10.2754 9.00616 10.4378 8.98855 10.6025V10.6048C8.98194 10.7092 8.96873 10.8136 8.95772 10.9157C8.94231 11.0572 8.90709 11.3773 8.90709 11.3773L8.90489 11.3935C8.86526 11.8621 8.81682 12.3354 8.77059 12.7947C8.75077 12.9849 8.73316 13.1798 8.71334 13.3746C8.70234 13.3399 8.68913 13.3051 8.67812 13.2726C8.64509 13.1798 8.61207 13.0824 8.58125 12.9872L8.34567 12.2983C7.59932 10.1107 6.85297 7.92543 6.10662 5.73553Z" fill="white"/>
</svg>
