<svg width="24" height="24" viewBox="0 0 24 24" fill="none" xmlns="http://www.w3.org/2000/svg">
<path d="M12.0004 24C18.6278 24 24.0004 18.6274 24.0004 12C24.0004 5.37258 18.6278 0 12.0004 0C5.37295 0 0.000366211 5.37258 0.000366211 12C0.000366211 18.6274 5.37295 24 12.0004 24Z" fill="#2775CA"/>
<path d="M15.2919 13.3716C15.2919 11.6264 14.2448 11.028 12.1505 10.7787C10.6545 10.5792 10.3553 10.1804 10.3553 9.48218C10.3553 8.784 10.854 8.33534 11.8513 8.33534C12.7488 8.33534 13.2475 8.63452 13.4968 9.38249C13.5467 9.53209 13.6963 9.63178 13.8459 9.63178H14.6437C14.8432 9.63178 14.9927 9.48218 14.9927 9.2828V9.2329C14.7933 8.13584 13.8957 7.28818 12.7488 7.18849V5.99174C12.7488 5.79224 12.5992 5.64265 12.35 5.59274H11.602C11.4025 5.59274 11.2529 5.74234 11.203 5.99174V7.13859C9.70705 7.33808 8.7597 8.33534 8.7597 9.58199C8.7597 11.2275 9.75696 11.8757 11.8513 12.1251C13.2475 12.3744 13.6963 12.6736 13.6963 13.4714C13.6963 14.2693 12.9981 14.8178 12.0508 14.8178C10.7542 14.8178 10.3054 14.2692 10.1558 13.5212C10.106 13.3218 9.95645 13.222 9.80686 13.222H8.95908C8.7597 13.222 8.61011 13.3716 8.61011 13.5711V13.621C8.80949 14.8676 9.60736 15.7651 11.2529 16.0145V17.2113C11.2529 17.4107 11.4025 17.5602 11.6518 17.6102H12.3997C12.5992 17.6102 12.7488 17.4606 12.7987 17.2113V16.0145C14.2947 15.7651 15.2919 14.718 15.2919 13.3716Z" fill="white"/>
<path d="M9.45873 18.6073C5.56928 17.2112 3.57465 12.873 5.02081 9.03331C5.76878 6.93899 7.41431 5.34336 9.45873 4.59539C9.65823 4.4957 9.75792 4.3461 9.75792 4.0967V3.39863C9.75792 3.19913 9.65823 3.04954 9.45873 2.99976C9.40882 2.99976 9.30913 2.99976 9.25923 3.04954C4.52212 4.54548 1.92911 9.5819 3.42506 14.319C4.32262 17.1114 6.46684 19.2556 9.25923 20.1532C9.45873 20.2529 9.65823 20.1532 9.70801 19.9537C9.75792 19.9039 9.75792 19.854 9.75792 19.7543V19.0561C9.75792 18.9065 9.60832 18.7071 9.45873 18.6073ZM14.7444 3.04954C14.5449 2.94985 14.3454 3.04954 14.2956 3.24904C14.2457 3.29894 14.2457 3.34873 14.2457 3.44854V4.1466C14.2457 4.3461 14.3953 4.54548 14.5449 4.64529C18.4344 6.04142 20.429 10.3797 18.9829 14.2193C18.2349 16.3136 16.5893 17.9093 14.5449 18.6572C14.3454 18.7569 14.2457 18.9065 14.2457 19.1559V19.854C14.2457 20.0535 14.3454 20.2031 14.5449 20.2529C14.5948 20.2529 14.6945 20.2529 14.7444 20.2031C19.4815 18.7071 22.0745 13.6707 20.5786 8.93362C19.681 6.09133 17.4869 3.94711 14.7444 3.04954Z" fill="white"/>
</svg>
