<svg width="24" height="24" viewBox="0 0 24 24" fill="none" xmlns="http://www.w3.org/2000/svg">
<path d="M16.3838 13.8267C16.3838 11.5001 14.9878 10.7024 12.1959 10.3701C10.2017 10.1042 9.8028 9.57243 9.8028 8.64168C9.8028 7.71094 10.4676 7.11283 11.797 7.11283C12.9936 7.11283 13.6584 7.51167 13.9907 8.50879C14.0572 8.70821 14.2566 8.8411 14.4561 8.8411H15.5195C15.7855 8.8411 15.9849 8.64168 15.9849 8.37589V8.30936C15.719 6.84688 14.5224 5.71687 12.9936 5.58398V3.9886C12.9936 3.72265 12.7941 3.52322 12.4618 3.4567H11.4647C11.1988 3.4567 10.9993 3.65612 10.9328 3.9886V5.51745C8.93859 5.7834 7.67568 7.11283 7.67568 8.77473C7.67568 10.9684 9.00511 11.8324 11.797 12.1649C13.6584 12.4972 14.2566 12.8961 14.2566 13.9597C14.2566 15.0234 13.3259 15.7545 12.063 15.7545C10.3345 15.7545 9.73628 15.0232 9.53685 14.0261C9.47049 13.7603 9.27106 13.6272 9.07164 13.6272H7.94147C7.67568 13.6272 7.47626 13.8267 7.47626 14.0926V14.1591C7.74205 15.8209 8.80569 17.0174 10.9993 17.3499V18.9453C10.9993 19.2111 11.1988 19.4105 11.5311 19.477H12.5282C12.7941 19.477 12.9936 19.2776 13.0601 18.9453V17.3499C15.0543 17.0174 16.3838 15.6215 16.3838 13.8267Z" fill="#1D2639"/>
<path d="M8.60765 20.8063C3.42265 18.9452 0.763621 13.1619 2.69148 8.04328C3.6886 5.25136 5.88225 3.12424 8.60765 2.12712C8.8736 1.99423 9.00649 1.79481 9.00649 1.46233V0.531741C9.00649 0.265791 8.8736 0.0663679 8.60765 0C8.54112 0 8.40822 -4.26013e-07 8.3417 0.0663675C2.02669 2.0606 -1.43003 8.77461 0.564197 15.0896C1.76074 18.8121 4.61919 21.6706 8.3417 22.8671C8.60765 23 8.8736 22.8671 8.93997 22.6012C9.00649 22.5348 9.00649 22.4683 9.00649 22.3354V21.4046C9.00649 21.2052 8.80707 20.9394 8.60765 20.8063ZM15.654 0.0663675C15.388 -0.0665279 15.1221 0.0663677 15.0557 0.332318C14.9892 0.398846 14.9892 0.465214 14.9892 0.598269V1.52886C14.9892 1.79481 15.1886 2.0606 15.388 2.19365C20.573 4.05483 23.2321 9.83809 21.3042 14.9567C20.3071 17.7486 18.1134 19.8758 15.388 20.8729C15.1221 21.0058 14.9892 21.2052 14.9892 21.5377V22.4683C14.9892 22.7342 15.1221 22.9336 15.388 23C15.4546 23 15.5875 23 15.654 22.9336C21.969 20.9394 25.4257 14.2254 23.4315 7.91039C22.2349 4.12135 19.31 1.2629 15.654 0.0663675Z" fill="#1D2639"/>
</svg>
