<svg width="18" height="18" viewBox="0 0 18 18" fill="none" xmlns="http://www.w3.org/2000/svg">
<path d="M9.00005 16.2C12.9765 16.2 16.2 12.9765 16.2 9.00002C16.2 5.02357 12.9765 1.80002 9.00005 1.80002C5.0236 1.80002 1.80005 5.02357 1.80005 9.00002C1.80005 12.9765 5.0236 16.2 9.00005 16.2Z" fill="#26A17B"/>
<path fill-rule="evenodd" clip-rule="evenodd" d="M9.86491 9.62237V9.62147C9.81541 9.62507 9.56026 9.64037 8.99101 9.64037C8.53651 9.64037 8.21656 9.62687 8.10406 9.62147V9.62282C6.35446 9.54587 5.04856 9.24122 5.04856 8.87672C5.04856 8.51267 6.35446 8.20802 8.10406 8.12972V9.31952C8.21836 9.32762 8.54596 9.34697 8.99866 9.34697C9.54181 9.34697 9.81406 9.32447 9.86491 9.31997V8.13062C11.6109 8.20847 12.9137 8.51312 12.9137 8.87672C12.9137 9.24122 11.6109 9.54497 9.86491 9.62237ZM9.86491 8.00687V6.94217H12.3012V5.31857H5.66776V6.94217H8.10406V8.00642C6.12406 8.09732 4.63501 8.48972 4.63501 8.95952C4.63501 9.42932 6.12406 9.82127 8.10406 9.91262V13.3245H9.86491V9.91172C11.8418 9.82082 13.3272 9.42887 13.3272 8.95952C13.3272 8.49017 11.8418 8.09822 9.86491 8.00687Z" fill="white"/>
</svg>
