<svg width="24" height="24" viewBox="0 0 24 24" fill="none" xmlns="http://www.w3.org/2000/svg">
<g clip-path="url(#clip0_5_1079)">
<path d="M23.8153 20.8346L13.3142 1.73509C13.0474 1.25031 12.5558 0.960388 12 0.960388C11.4442 0.960388 10.9527 1.25031 10.6858 1.73509L0.18475 20.8346C-0.069642 21.3001 -0.0610169 21.8492 0.20875 22.3043C0.480439 22.7651 0.9633 23.0396 1.49988 23.0396H22.5001C23.0367 23.0396 23.5196 22.7651 23.7913 22.3043C24.061 21.8492 24.0697 21.3001 23.8153 20.8346ZM11.7629 8.6603C11.8436 8.64684 11.9232 8.64014 12.0019 8.64014C12.6931 8.64014 13.3027 9.13453 13.4198 9.83049C13.4477 9.98888 13.4448 10.1502 13.4198 10.2999L12.4733 15.9224C12.4339 16.1548 12.2304 16.3198 12.001 16.3198C11.975 16.3198 11.9472 16.3179 11.9213 16.3131C11.713 16.2786 11.5593 16.1173 11.5267 15.9224L10.5802 10.2999C10.4487 9.52332 10.9796 8.78892 11.7629 8.6603ZM12 20.1597C11.2061 20.1597 10.5601 19.5137 10.5601 18.7198C10.5601 17.9258 11.2061 17.2798 12 17.2798C12.7939 17.2798 13.44 17.9259 13.44 18.7198C13.44 19.5136 12.7939 20.1597 12 20.1597Z" fill="#1D2639"/>
</g>
<defs>
<clipPath id="clip0_5_1079">
<rect width="24" height="24" fill="white"/>
</clipPath>
</defs>
</svg>
