<svg width="24" height="24" viewBox="0 0 24 24" fill="none" xmlns="http://www.w3.org/2000/svg">
<path d="M20.068 6.6334L21.6 5.12923V4.79999H16.2928L12.5104 14.4621L8.20722 4.79999H2.64242V5.12923L4.43202 7.34032C4.60642 7.50371 4.69762 7.74264 4.67442 7.98321V16.6724C4.72962 16.9852 4.63042 17.3071 4.41602 17.5345L2.40002 20.042V20.3671H8.11602V20.0379L6.10002 17.5345C5.99212 17.4225 5.91091 17.2864 5.86275 17.1369C5.8146 16.9873 5.80079 16.8283 5.82242 16.6724V9.15649L10.84 20.3713H11.4232L15.7376 9.15649V18.0904C15.7376 18.326 15.7376 18.3745 15.5872 18.5288L14.0352 20.0699V20.4H21.5648V20.0707L20.0688 18.5674C20.004 18.5173 19.9539 18.4499 19.9237 18.3727C19.8935 18.2954 19.8845 18.2111 19.8976 18.129V7.07184C19.8842 6.98975 19.893 6.90547 19.9231 6.82816C19.9531 6.75085 20.0033 6.68349 20.068 6.6334Z" fill="#1D2639"/>
</svg>
