<svg width="24" height="24" viewBox="0 0 24 24" fill="none" xmlns="http://www.w3.org/2000/svg">
<path d="M21.6 12C21.6 10.6764 20.5283 9.60003 19.2105 9.60003C18.6836 9.60003 18.183 9.77283 17.7744 10.086C16.441 9.15603 14.6942 8.60163 12.8364 8.46123L13.8388 6.09964L16.7552 6.78364C16.8484 7.68964 17.6035 8.40003 18.5295 8.40003C19.5175 8.40003 20.3216 7.59244 20.3216 6.60004C20.3216 5.60764 19.5175 4.80005 18.5295 4.80005C17.9034 4.80005 17.3526 5.12525 17.0324 5.61604L13.6237 4.81565C13.3346 4.74965 13.0514 4.89725 12.9367 5.16485L11.5508 8.42883C9.54477 8.49843 7.63313 9.06603 6.18984 10.0548C5.79676 9.76203 5.3093 9.60003 4.78957 9.60003C3.47174 9.60003 2.40002 10.6764 2.40002 12C2.40002 12.8772 2.87674 13.6704 3.60794 14.0772C3.59838 14.1828 3.5948 14.2908 3.5948 14.4C3.5948 17.7084 7.34638 20.4 11.9582 20.4C16.5688 20.4 20.3216 17.7084 20.3216 14.4C20.3216 14.3064 20.318 14.214 20.3121 14.1216C21.0911 13.7232 21.6 12.9108 21.6 12ZM18.5295 6.00004C18.858 6.00004 19.1268 6.26884 19.1268 6.60004C19.1268 6.93124 18.858 7.20004 18.5295 7.20004C18.2009 7.20004 17.9321 6.93124 17.9321 6.60004C17.9321 6.26884 18.2009 6.00004 18.5295 6.00004ZM7.7765 13.8C7.7765 13.1388 8.31296 12.6 8.97127 12.6C9.62959 12.6 10.166 13.1388 10.166 13.8C10.166 14.4624 9.62959 15 8.97127 15C8.31296 15 7.7765 14.4624 7.7765 13.8ZM14.7169 17.7804C13.8925 18.3792 12.9248 18.6792 11.9582 18.6792C10.9916 18.6792 10.0239 18.3792 9.19948 17.7804C8.93185 17.586 8.87211 17.2104 9.06566 16.9428C9.25922 16.6752 9.63318 16.6152 9.89961 16.8084C11.1314 17.7024 12.785 17.7048 14.0168 16.8084C14.2832 16.6152 14.656 16.6728 14.8508 16.9428C15.0443 17.2116 14.9834 17.586 14.7169 17.7804ZM14.9451 15C14.2856 15 13.7504 14.4624 13.7504 13.8C13.7504 13.1388 14.2856 12.6 14.9451 12.6C15.6047 12.6 16.1399 13.1388 16.1399 13.8C16.1399 14.4624 15.6047 15 14.9451 15Z" fill="#1D2639"/>
</svg>
