<svg width="24" height="24" viewBox="0 0 24 24" fill="none" xmlns="http://www.w3.org/2000/svg">
<path d="M21.6 6.64679C20.886 6.95999 20.1252 7.16759 19.332 7.26839C20.148 6.78119 20.7708 6.01559 21.0636 5.09279C20.3028 5.54639 19.4628 5.86679 18.5676 6.04559C17.8452 5.27639 16.8156 4.79999 15.6924 4.79999C13.5132 4.79999 11.7588 6.56879 11.7588 8.73719C11.7588 9.04919 11.7852 9.34919 11.85 9.63479C8.57762 9.47519 5.68202 7.90679 3.73682 5.51759C3.39722 6.10679 3.19802 6.78119 3.19802 7.50719C3.19802 8.87039 3.90002 10.0788 4.94642 10.7784C4.31402 10.7664 3.69362 10.5828 3.16802 10.2936V10.3368C3.16802 12.2496 4.53242 13.8384 6.32162 14.2044C6.00122 14.292 5.65202 14.334 5.28962 14.334C5.03762 14.334 4.78322 14.3196 4.54442 14.2668C5.05442 15.8256 6.50162 16.9716 8.22242 17.0088C6.88322 18.0564 5.18282 18.6876 3.34202 18.6876C3.01922 18.6876 2.70962 18.6732 2.40002 18.6336C4.14362 19.758 6.21002 20.4 8.43842 20.4C15.6816 20.4 19.6416 14.4 19.6416 9.19919C19.6416 9.02519 19.6356 8.85719 19.6272 8.69039C20.4084 8.13599 21.0648 7.44359 21.6 6.64679Z" fill="#1D2639"/>
</svg>
