<svg width="127" height="19" viewBox="0 0 127 19" fill="none" xmlns="http://www.w3.org/2000/svg">
<path fill-rule="evenodd" clip-rule="evenodd" d="M10.9878 16.6853V18.4336H8.65225H8.09869H5.76262V16.6853H8.09869H8.11393H8.19103H8.2015H8.2729H8.29908H8.36H8.39094H8.45139H8.47757H8.54896H8.55896H8.63607H8.6513H10.9878ZM-1 8.42817V8.45673V10.1755V10.205H8.15629H8.59561H17.7514V10.1755V8.45673V8.42817H8.59513H8.15581H-1ZM1.67354 4.23818H15.0779V4.38336V5.85602V5.98596H1.67354V5.85602V4.38336V4.23818ZM10.9878 1.94733V0.199554H8.65225H8.09869H5.76262V1.94733H8.09869H8.11393H8.19103H8.2015H8.2729H8.29908H8.36H8.39094H8.45139H8.47757H8.54896H8.55896H8.63607H8.6513H10.9878ZM15.0779 12.7771V14.2503V14.3874H1.67354V14.2503V12.7771V12.6396H15.0779V12.7771Z" fill="#00FFC2"/>
<path fill-rule="evenodd" clip-rule="evenodd" d="M43.404 4.25769H45.5335L50.0662 11.9504L54.5855 4.25769H56.5913L50.8358 13.8186C50.7349 13.9923 50.6159 14.1298 50.4784 14.2303C50.3408 14.3317 50.1809 14.3816 49.9976 14.3816C49.8053 14.3816 49.6406 14.3317 49.5031 14.2303C49.3655 14.1298 49.2465 13.9923 49.1461 13.8186L43.404 4.25769ZM91.8889 14.2446L90.3915 11.7309H85.6656L86.49 10.3159H89.5533L87.3277 6.57949L82.795 14.2446H80.803L86.5447 4.68417C86.6456 4.50996 86.7641 4.37288 86.9017 4.27197C87.0392 4.17106 87.2039 4.12109 87.3962 4.12109C87.5885 4.12109 87.7508 4.17106 87.8836 4.27197C88.0164 4.3724 88.133 4.50996 88.2339 4.68417L93.9894 14.2446H91.8889ZM98.2908 14.2446C97.5944 14.2446 96.9514 14.1141 96.3602 13.8533C95.7695 13.592 95.2569 13.235 94.8219 12.7819C94.3873 12.3288 94.0479 11.7904 93.8052 11.1674C93.5624 10.5448 93.4411 9.87179 93.4411 9.14832C93.4411 8.41579 93.5624 7.74753 93.8052 7.14304C94.0479 6.53856 94.3873 6.02308 94.8219 5.59756C95.2569 5.17156 95.7695 4.84171 96.3602 4.60848C96.9509 4.37478 97.5944 4.25817 98.2908 4.25817H103.703V6.00309H98.2908C97.8419 6.00309 97.4273 6.08305 97.047 6.24346C96.6672 6.40338 96.3402 6.62566 96.0651 6.90981C95.7905 7.19349 95.5753 7.53239 95.4197 7.92649C95.264 8.32012 95.1865 8.75516 95.1865 9.23113C95.1865 9.69806 95.264 10.1336 95.4197 10.5363C95.5753 10.9389 95.7905 11.285 96.0651 11.5734C96.3397 11.8618 96.6672 12.0884 97.047 12.2536C97.4273 12.4182 97.8419 12.5011 98.2908 12.5011H102.563V9.90511H98.0571V8.43531H104.321V14.246H98.2908V14.2446ZM122.137 12.4996C122.585 12.4996 123 12.4168 123.38 12.2521C123.76 12.087 124.09 11.8609 124.369 11.572C124.648 11.284 124.866 10.938 125.021 10.5348C125.177 10.1317 125.255 9.69663 125.255 9.2297C125.255 8.76277 125.177 8.33012 125.021 7.93173C124.866 7.53334 124.648 7.19206 124.369 6.90838C124.09 6.62423 123.76 6.40243 123.38 6.24202C123 6.0821 122.585 6.00166 122.137 6.00166H118.085V12.4992H122.137V12.4996ZM116.354 14.2446V4.25817H122.137C122.842 4.25817 123.493 4.37716 124.088 4.61515C124.683 4.85314 125.196 5.18774 125.626 5.61802C126.057 6.0483 126.393 6.56331 126.635 7.16351C126.879 7.76324 127 8.42484 127 9.14832C127 9.87227 126.879 10.5453 126.635 11.1674C126.393 11.7904 126.057 12.3283 125.626 12.7819C125.196 13.235 124.683 13.592 124.088 13.8533C123.493 14.1141 122.842 14.2446 122.137 14.2446H116.354ZM42.3597 12.4911H42.3092H36.3943H35.4819H33.7479V14.2388H42.3097H42.3602V12.4911H42.3597ZM42.3597 8.26634H33.7474V10.0141H42.3597V8.26634ZM39.7818 4.24246H33.7474V5.99023H42.3597V5.98119V4.24246V4.23342H39.7813V4.24246H39.7818ZM66.3716 12.4911H66.3211H60.4057H59.4933H57.7593V14.2388H66.3211H66.3716V12.4911ZM66.3716 8.26634H57.7588V10.0141H66.3716V8.26634ZM63.7932 4.24246H57.7588V5.99023H66.3716V5.98119V4.24246V4.23342H63.7932V4.24246ZM77.3751 14.2636L74.8424 11.483H68.2464V9.94224H75.2694C75.9024 9.94224 76.3798 9.76993 76.7006 9.4258C77.0224 9.08168 77.1828 8.58381 77.1828 7.93268C77.1828 7.28107 77.0148 6.79749 76.6802 6.48049C76.346 6.16397 75.8753 6.00547 75.2694 6.00547H69.8195H68.0855V4.25769H75.2694C75.8382 4.25769 76.3475 4.34289 76.7973 4.51234C77.2466 4.68179 77.6274 4.92501 77.9396 5.24153C78.2509 5.55805 78.4898 5.94073 78.655 6.39053C78.8206 6.84032 78.903 7.34485 78.903 7.9046C78.903 8.73993 78.7221 9.43961 78.3589 10.0036C77.9962 10.5681 77.4898 10.9737 76.8382 11.2217L79.8525 14.2636H77.3751ZM114.698 12.4911H114.648H108.733H107.82H106.086V14.2388H114.648H114.698V12.4911H114.698ZM114.698 8.26634H106.086V10.0141H114.698V8.26634ZM112.121 4.24246H106.086V5.99023H114.698V5.98119V4.24246V4.23342H112.121V4.24246ZM23.9391 14.2446V4.25817H25.6835V12.5001H32.4009V14.2446H23.9391Z" fill="white"/>
</svg>
